<svg width="191" height="101" viewBox="0 0 191 101" fill="none" xmlns="http://www.w3.org/2000/svg">
<path d="M27.6849 70.7338H27.1064C27.044 70.7338 26.982 70.7548 26.9617 70.8165L21.1539 81.0475L15.3664 70.8165C15.3484 70.7898 15.3237 70.7682 15.2949 70.7537C15.2661 70.7392 15.2341 70.7324 15.2018 70.7338H14.6223C14.54 70.7338 14.4777 70.7752 14.4777 70.8578V85.3876C14.4777 85.4703 14.54 85.5116 14.6223 85.5116H15.0565C15.1185 85.5116 15.1805 85.4703 15.1805 85.3876L15.1598 71.8086V71.7882L20.823 81.8123C20.8643 81.8536 20.9263 81.8946 20.9883 81.8946H21.3189C21.3812 81.8946 21.4635 81.8536 21.4845 81.8123L27.1477 71.7882V71.8086L27.1267 85.3876C27.1267 85.4703 27.1886 85.5116 27.251 85.5116H27.6852C27.7675 85.5116 27.8295 85.4703 27.8295 85.3876V70.8578C27.8295 70.7752 27.7675 70.7338 27.6849 70.7338Z" fill="#3A62AE"/>
<path d="M27.6849 70.7338H27.1064C27.044 70.7338 26.982 70.7548 26.9617 70.8165L21.1539 81.0475L15.3664 70.8165C15.3484 70.7898 15.3237 70.7682 15.2949 70.7537C15.2661 70.7392 15.2341 70.7324 15.2018 70.7338H14.6223C14.54 70.7338 14.4777 70.7752 14.4777 70.8578V85.3876C14.4777 85.4703 14.54 85.5116 14.6223 85.5116H15.0565C15.1185 85.5116 15.1805 85.4703 15.1805 85.3876L15.1598 71.8086V71.7882L20.823 81.8123C20.8643 81.8536 20.9263 81.8946 20.9883 81.8946H21.3189C21.3812 81.8946 21.4635 81.8536 21.4845 81.8123L27.1477 71.7882V71.8086L27.1267 85.3876C27.1267 85.4703 27.1886 85.5116 27.251 85.5116H27.6852C27.7675 85.5116 27.8295 85.4703 27.8295 85.3876V70.8578C27.8295 70.7752 27.7675 70.7338 27.6849 70.7338Z" stroke="#3A62AE" stroke-width="0.8" stroke-miterlimit="10"/>
<path d="M42.9175 70.7336H42.4833C42.4006 70.7336 42.3593 70.775 42.3593 70.8576V80.5097C42.3593 83.238 40.809 85.0362 37.9778 85.0362C35.1462 85.0362 33.6166 83.238 33.6166 80.5097V70.8576C33.6166 70.775 33.5753 70.7336 33.4926 70.7336H33.0588C32.9758 70.7336 32.9141 70.775 32.9141 70.8576V80.5307C32.9141 83.5893 34.774 85.6771 37.9778 85.6771C41.2019 85.6771 43.0625 83.5893 43.0625 80.5307V70.8576C43.0625 70.775 42.9998 70.7336 42.9175 70.7336Z" fill="#3A62AE"/>
<path d="M42.9175 70.7336H42.4833C42.4006 70.7336 42.3593 70.775 42.3593 70.8576V80.5097C42.3593 83.238 40.809 85.0362 37.9778 85.0362C35.1462 85.0362 33.6166 83.238 33.6166 80.5097V70.8576C33.6166 70.775 33.5753 70.7336 33.4926 70.7336H33.0588C32.9758 70.7336 32.9141 70.775 32.9141 70.8576V80.5307C32.9141 83.5893 34.774 85.6771 37.9778 85.6771C41.2019 85.6771 43.0625 83.5893 43.0625 80.5307V70.8576C43.0625 70.775 42.9998 70.7336 42.9175 70.7336Z" stroke="#3A62AE" stroke-width="0.8" stroke-miterlimit="10"/>
<path d="M48.8493 78.5876V71.3745H52.8176C55.4839 71.3745 57.0548 72.6765 57.0548 74.9912C57.0548 77.3269 55.4839 78.5876 52.8176 78.5876H48.8493ZM53.1898 79.2078C56.0421 79.0631 57.7366 77.5132 57.7366 74.9915C57.7366 72.3046 55.8561 70.7336 52.8176 70.7336H48.2915C48.2088 70.7336 48.1465 70.775 48.1465 70.858V85.3875C48.1465 85.4701 48.2088 85.5114 48.2915 85.5114H48.7253C48.7873 85.5114 48.8493 85.4701 48.8493 85.3875V79.2284H52.3837L57.1581 85.4288C57.1788 85.4911 57.2611 85.5114 57.3234 85.5114H57.8813C57.9849 85.5114 58.0052 85.4288 57.9639 85.3461L53.1898 79.2078Z" fill="#3A62AE"/>
<path d="M48.8493 78.5876V71.3745H52.8176C55.4839 71.3745 57.0548 72.6765 57.0548 74.9912C57.0548 77.3269 55.4839 78.5876 52.8176 78.5876H48.8493ZM53.1898 79.2078C56.0421 79.0631 57.7366 77.5132 57.7366 74.9915C57.7366 72.3046 55.8561 70.7336 52.8176 70.7336H48.2915C48.2088 70.7336 48.1465 70.775 48.1465 70.858V85.3875C48.1465 85.4701 48.2088 85.5114 48.2915 85.5114H48.7253C48.7873 85.5114 48.8493 85.4701 48.8493 85.3875V79.2284H52.3837L57.1581 85.4288C57.1788 85.4911 57.2611 85.5114 57.3234 85.5114H57.8813C57.9849 85.5114 58.0052 85.4288 57.9639 85.3461L53.1898 79.2078Z" stroke="#3A62AE" stroke-width="0.8" stroke-miterlimit="10"/>
<path d="M66.7689 79.1044H62.8006V71.3748H66.7689C69.6831 71.3748 71.1924 72.7798 71.1924 75.2601C71.1924 77.7405 69.6831 79.1044 66.7689 79.1044ZM66.8312 70.734H62.2428C62.1601 70.734 62.1188 70.7753 62.1188 70.858V85.3871C62.1188 85.4704 62.1601 85.5118 62.2424 85.5118H62.6767C62.7596 85.5118 62.801 85.4704 62.801 85.3875V79.7656H66.8312C70.0554 79.7656 71.8739 78.112 71.8739 75.2598C71.8739 72.4492 70.0757 70.7336 66.8312 70.7336" fill="#3A62AE"/>
<path d="M66.7689 79.1044H62.8006V71.3748H66.7689C69.6831 71.3748 71.1924 72.7798 71.1924 75.2601C71.1924 77.7405 69.6831 79.1044 66.7689 79.1044ZM66.8312 70.734H62.2428C62.1601 70.734 62.1188 70.7753 62.1188 70.858V85.3871C62.1188 85.4704 62.1601 85.5118 62.2424 85.5118H62.6767C62.7596 85.5118 62.801 85.4704 62.801 85.3875V79.7656H66.8312C70.0554 79.7656 71.8739 78.112 71.8739 75.2598C71.8739 72.4492 70.0757 70.7336 66.8312 70.7336V70.734Z" stroke="#3A62AE" stroke-width="0.8" stroke-miterlimit="10"/>
<path d="M85.7013 70.7336H85.2877C85.2051 70.7336 85.1431 70.775 85.1431 70.8576V77.6575H76.6483V70.8576C76.6483 70.775 76.5867 70.7336 76.5247 70.7336H76.0908C76.0078 70.7336 75.9459 70.775 75.9459 70.8576V85.3875C75.9459 85.4701 76.0078 85.5114 76.0908 85.5114H76.5247C76.5867 85.5114 76.6483 85.4701 76.6483 85.3875V78.2983H85.1431V85.3875C85.1431 85.4701 85.2051 85.5114 85.2877 85.5114H85.7013C85.7839 85.5114 85.8459 85.4701 85.8459 85.3875V70.8576C85.8459 70.775 85.7839 70.7336 85.7013 70.7336Z" fill="#3A62AE"/>
<path d="M85.7013 70.7336H85.2877C85.2051 70.7336 85.1431 70.775 85.1431 70.8576V77.6575H76.6483V70.8576C76.6483 70.775 76.5867 70.7336 76.5247 70.7336H76.0908C76.0078 70.7336 75.9459 70.775 75.9459 70.8576V85.3875C75.9459 85.4701 76.0078 85.5114 76.0908 85.5114H76.5247C76.5867 85.5114 76.6483 85.4701 76.6483 85.3875V78.2983H85.1431V85.3875C85.1431 85.4701 85.2051 85.5114 85.2877 85.5114H85.7013C85.7839 85.5114 85.8459 85.4701 85.8459 85.3875V70.8576C85.8459 70.775 85.7839 70.7336 85.7013 70.7336Z" stroke="#3A62AE" stroke-width="0.8" stroke-miterlimit="10"/>
<path d="M99.8175 70.7336H99.3423C99.2807 70.7336 99.1977 70.7547 99.177 70.8163L94.5886 78.9805L90.0001 70.8163C89.9798 70.7547 89.9175 70.7336 89.8558 70.7336H89.36C89.256 70.7336 89.2154 70.7956 89.256 70.8993L94.2373 79.6623V85.3878C94.2373 85.4701 94.2787 85.5114 94.361 85.5114H94.7952C94.8778 85.5114 94.9398 85.4701 94.9398 85.3875V79.6623L99.9212 70.8993C99.9625 70.7956 99.9212 70.7336 99.8175 70.7336Z" fill="#3A62AE"/>
<path d="M99.8175 70.7336H99.3423C99.2807 70.7336 99.1977 70.7547 99.177 70.8163L94.5886 78.9805L90.0001 70.8163C89.9798 70.7547 89.9175 70.7336 89.8558 70.7336H89.36C89.256 70.7336 89.2154 70.7956 89.256 70.8993L94.2373 79.6623V85.3878C94.2373 85.4701 94.2787 85.5114 94.361 85.5114H94.7952C94.8778 85.5114 94.9398 85.4701 94.9398 85.3875V79.6623L99.9212 70.8993C99.9625 70.7956 99.9212 70.7336 99.8175 70.7336Z" stroke="#3A62AE" stroke-width="0.8" stroke-miterlimit="10"/>
<path d="M109.408 71.3744H113.728C116.456 71.3744 118.109 73.0279 118.109 75.8798V80.4273C118.109 83.2792 116.456 84.8502 113.728 84.8502H109.408V71.3744ZM108.85 85.5113H113.748C116.827 85.5113 118.812 83.6518 118.812 80.427V75.8798C118.812 72.6767 116.848 70.7339 113.748 70.7339H108.85C108.767 70.7339 108.705 70.7752 108.705 70.8575V85.3877C108.705 85.4703 108.767 85.5113 108.85 85.5113Z" fill="#3A62AE"/>
<path d="M109.408 71.3744H113.728C116.456 71.3744 118.109 73.0279 118.109 75.8798V80.4273C118.109 83.2792 116.456 84.8502 113.728 84.8502H109.408V71.3744ZM108.85 85.5113H113.748C116.827 85.5113 118.812 83.6518 118.812 80.427V75.8798C118.812 72.6767 116.848 70.7339 113.748 70.7339H108.85C108.767 70.7339 108.705 70.7752 108.705 70.8575V85.3877C108.705 85.4703 108.767 85.5113 108.85 85.5113Z" stroke="#3A62AE" stroke-width="0.8" stroke-miterlimit="10"/>
<path d="M132.019 84.8708H124.206V78.2979H131.275C131.358 78.2979 131.42 78.2569 131.42 78.1746V77.7817C131.42 77.6994 131.358 77.6577 131.275 77.6577H124.206V71.3747H131.709C131.792 71.3747 131.833 71.3334 131.833 71.2504V70.8579C131.833 70.7752 131.792 70.7339 131.709 70.7339H123.648C123.566 70.7339 123.504 70.7752 123.504 70.8579V85.3877C123.504 85.4703 123.566 85.5117 123.648 85.5117H132.019C132.101 85.5117 132.143 85.4703 132.143 85.3877V84.9948C132.143 84.9121 132.101 84.8708 132.019 84.8708Z" fill="#3A62AE"/>
<path d="M132.019 84.8708H124.206V78.2979H131.275C131.358 78.2979 131.42 78.2569 131.42 78.1746V77.7817C131.42 77.6994 131.358 77.6577 131.275 77.6577H124.206V71.3747H131.709C131.792 71.3747 131.833 71.3334 131.833 71.2504V70.8579C131.833 70.7752 131.792 70.7339 131.709 70.7339H123.648C123.566 70.7339 123.504 70.7752 123.504 70.8579V85.3877C123.504 85.4703 123.566 85.5117 123.648 85.5117H132.019C132.101 85.5117 132.143 85.4703 132.143 85.3877V84.9948C132.143 84.9121 132.101 84.8708 132.019 84.8708Z" stroke="#3A62AE" stroke-width="0.8" stroke-miterlimit="10"/>
<path d="M146.631 70.7336H146.218C146.135 70.7336 146.073 70.775 146.073 70.8576L146.094 84.4367L137.144 70.8163C137.124 70.7547 137.041 70.7336 137 70.7336H136.483C136.401 70.7336 136.338 70.775 136.338 70.8576V85.3875C136.338 85.4701 136.401 85.5114 136.483 85.5114H136.917C136.979 85.5114 137.041 85.4701 137.041 85.3875L137.021 71.85L145.97 85.4288C145.991 85.4911 146.073 85.5114 146.135 85.5114H146.631C146.714 85.5114 146.776 85.4701 146.776 85.3875V70.8576C146.776 70.775 146.714 70.7336 146.631 70.7336Z" fill="#3A62AE"/>
<path d="M146.631 70.7336H146.218C146.135 70.7336 146.073 70.775 146.073 70.8576L146.094 84.4367L137.144 70.8163C137.124 70.7547 137.041 70.7336 137 70.7336H136.483C136.401 70.7336 136.338 70.775 136.338 70.8576V85.3875C136.338 85.4701 136.401 85.5114 136.483 85.5114H136.917C136.979 85.5114 137.041 85.4701 137.041 85.3875L137.021 71.85L145.97 85.4288C145.991 85.4911 146.073 85.5114 146.135 85.5114H146.631C146.714 85.5114 146.776 85.4701 146.776 85.3875V70.8576C146.776 70.775 146.714 70.7336 146.631 70.7336Z" stroke="#3A62AE" stroke-width="0.8" stroke-miterlimit="10"/>
<path d="M160.624 70.7336H150.352C150.269 70.7336 150.228 70.775 150.228 70.8576V71.2505C150.228 71.3332 150.269 71.3745 150.352 71.3745H155.106V85.3875C155.106 85.4701 155.168 85.5114 155.25 85.5114H155.685C155.746 85.5114 155.808 85.4701 155.808 85.3875V71.3745H160.624C160.707 71.3745 160.769 71.3332 160.769 71.2505V70.8576C160.769 70.775 160.707 70.7336 160.624 70.7336Z" fill="#3A62AE"/>
<path d="M160.624 70.7336H150.352C150.269 70.7336 150.228 70.775 150.228 70.8576V71.2505C150.228 71.3332 150.269 71.3745 150.352 71.3745H155.106V85.3875C155.106 85.4701 155.168 85.5114 155.25 85.5114H155.685C155.746 85.5114 155.808 85.4701 155.808 85.3875V71.3745H160.624C160.707 71.3745 160.769 71.3332 160.769 71.2505V70.8576C160.769 70.775 160.707 70.7336 160.624 70.7336Z" stroke="#3A62AE" stroke-width="0.8" stroke-miterlimit="10"/>
<path d="M163.703 80.241L166.907 71.581H166.969L170.173 80.241H163.703ZM167.362 70.8372C167.351 70.8073 167.332 70.7813 167.306 70.7628C167.28 70.7444 167.249 70.7343 167.217 70.7339H166.639C166.597 70.7339 166.535 70.7752 166.514 70.8372L161.079 85.367C161.058 85.4497 161.099 85.5117 161.182 85.5117H161.657C161.719 85.5117 161.761 85.4703 161.782 85.4084L163.476 80.8819H170.4L172.074 85.4084C172.115 85.4703 172.157 85.5117 172.219 85.5117H172.694C172.777 85.5117 172.818 85.4497 172.798 85.367L167.362 70.8372Z" fill="#3A62AE"/>
<path d="M163.703 80.241L166.907 71.581H166.969L170.173 80.241H163.703ZM167.362 70.8372C167.351 70.8073 167.332 70.7813 167.306 70.7628C167.28 70.7444 167.249 70.7343 167.217 70.7339H166.639C166.597 70.7339 166.535 70.7752 166.514 70.8372L161.079 85.367C161.058 85.4497 161.099 85.5117 161.182 85.5117H161.657C161.719 85.5117 161.761 85.4703 161.782 85.4084L163.476 80.8819H170.4L172.074 85.4084C172.115 85.4703 172.157 85.5117 172.219 85.5117H172.694C172.777 85.5117 172.818 85.4497 172.798 85.367L167.362 70.8372Z" stroke="#3A62AE" stroke-width="0.8" stroke-miterlimit="10"/>
<path d="M184.041 84.8708H176.931V70.8579C176.931 70.7752 176.89 70.7339 176.808 70.7339H176.373C176.291 70.7339 176.228 70.7752 176.228 70.8579V85.3877C176.228 85.4703 176.291 85.5117 176.373 85.5117H184.041C184.124 85.5117 184.165 85.4703 184.165 85.3877V84.9948C184.165 84.9121 184.124 84.8708 184.041 84.8708Z" fill="#3A62AE"/>
<path d="M184.041 84.8708H176.931V70.8579C176.931 70.7752 176.89 70.7339 176.808 70.7339H176.373C176.291 70.7339 176.228 70.7752 176.228 70.8579V85.3877C176.228 85.4703 176.291 85.5117 176.373 85.5117H184.041C184.124 85.5117 184.165 85.4703 184.165 85.3877V84.9948C184.165 84.9121 184.124 84.8708 184.041 84.8708Z" stroke="#3A62AE" stroke-width="0.8" stroke-miterlimit="10"/>
<path d="M77.4671 98.6206C77.4415 98.5821 77.4023 98.5691 77.3638 98.6077C76.6247 99.2522 75.676 99.6051 74.6953 99.6004C72.9157 99.6004 72.0133 98.4788 72.0133 96.9443V93.5794C72.0133 92.0449 72.9028 90.9232 74.6691 90.9232C75.5719 90.9232 76.4484 91.2324 77.1575 91.7997C77.2093 91.8386 77.2478 91.8257 77.2734 91.7868L77.4156 91.5805C77.4541 91.5546 77.4541 91.5035 77.4023 91.4776C76.6032 90.8332 75.6493 90.5233 74.682 90.5233C72.7221 90.5233 71.5875 91.7738 71.5875 93.5794V96.9446C71.5875 98.7495 72.7091 100 74.7076 100C75.7392 100 76.7709 99.6778 77.5959 98.9428C77.6478 98.9043 77.6478 98.8658 77.6215 98.8272L77.4671 98.6206Z" fill="#3A62AE"/>
<path d="M77.4671 98.6206C77.4415 98.5821 77.4023 98.5691 77.3638 98.6077C76.6247 99.2522 75.676 99.6051 74.6953 99.6004C72.9157 99.6004 72.0133 98.4788 72.0133 96.9443V93.5794C72.0133 92.0449 72.9028 90.9232 74.6691 90.9232C75.5719 90.9232 76.4484 91.2324 77.1575 91.7997C77.2093 91.8386 77.2478 91.8257 77.2734 91.7868L77.4156 91.5805C77.4541 91.5546 77.4541 91.5035 77.4023 91.4776C76.6032 90.8332 75.6493 90.5233 74.682 90.5233C72.7221 90.5233 71.5875 91.7738 71.5875 93.5794V96.9446C71.5875 98.7495 72.7091 100 74.7076 100C75.7392 100 76.7709 99.6778 77.5959 98.9428C77.6478 98.9043 77.6478 98.8658 77.6215 98.8272L77.4674 98.6206H77.4671Z" stroke="#3A62AE" stroke-width="0.8" stroke-miterlimit="10"/>
<path d="M85.3574 99.4715H80.4832V95.3715H84.8931C84.9442 95.3715 84.9834 95.3456 84.9834 95.2938V95.0487C84.9834 94.9975 84.9442 94.9716 84.8931 94.9716H80.4832V91.052H85.1634C85.2152 91.052 85.2412 91.0264 85.2412 90.9746V90.7295C85.2412 90.6784 85.2152 90.6521 85.1634 90.6521H80.1348C80.0833 90.6521 80.0448 90.6784 80.0448 90.7291V99.794C80.0448 99.8455 80.0833 99.871 80.1351 99.871H85.3571C85.4085 99.871 85.4341 99.8455 85.4341 99.794V99.5489C85.4341 99.4974 85.4085 99.4715 85.3571 99.4715" fill="#3A62AE"/>
<path d="M85.3574 99.4715H80.4832V95.3715H84.8931C84.9442 95.3715 84.9834 95.3456 84.9834 95.2938V95.0487C84.9834 94.9975 84.9442 94.9716 84.8931 94.9716H80.4832V91.052H85.1634C85.2152 91.052 85.2412 91.0264 85.2412 90.9746V90.7295C85.2412 90.6784 85.2152 90.6521 85.1634 90.6521H80.1348C80.0833 90.6521 80.0448 90.6784 80.0448 90.7291V99.794C80.0448 99.8455 80.0833 99.871 80.1351 99.871H85.3571C85.4085 99.871 85.4341 99.8455 85.4341 99.794V99.5489C85.4341 99.4974 85.4085 99.4715 85.3571 99.4715H85.3574Z" stroke="#3A62AE" stroke-width="0.8" stroke-miterlimit="10"/>
<path d="M94.4716 90.6521H94.2139C94.162 90.6521 94.1235 90.678 94.1235 90.7295L94.1365 99.2004L88.5538 90.7036C88.5405 90.6651 88.4891 90.6521 88.4635 90.6521H88.141C88.0891 90.6521 88.0506 90.678 88.0506 90.7295V99.7937C88.0506 99.8455 88.0891 99.871 88.141 99.871H88.4117C88.4502 99.871 88.4887 99.8455 88.4887 99.794L88.4761 91.3483L94.0591 99.8196C94.0721 99.8581 94.1235 99.871 94.162 99.871H94.4716C94.5231 99.871 94.562 99.8455 94.562 99.794V90.7295C94.562 90.678 94.5231 90.6525 94.4716 90.6525" fill="#3A62AE"/>
<path d="M94.4716 90.6521H94.2139C94.162 90.6521 94.1235 90.678 94.1235 90.7295L94.1365 99.2004L88.5538 90.7036C88.5405 90.6651 88.4891 90.6521 88.4635 90.6521H88.141C88.0891 90.6521 88.0506 90.678 88.0506 90.7295V99.7937C88.0506 99.8455 88.0891 99.871 88.141 99.871H88.4117C88.4502 99.871 88.4887 99.8455 88.4887 99.794L88.4761 91.3483L94.0591 99.8196C94.0721 99.8581 94.1235 99.871 94.162 99.871H94.4716C94.5231 99.871 94.562 99.8455 94.562 99.794V90.7295C94.562 90.678 94.5231 90.6525 94.4716 90.6525V90.6521Z" stroke="#3A62AE" stroke-width="0.8" stroke-miterlimit="10"/>
<path d="M103.2 90.6521H96.7912C96.7401 90.6521 96.7138 90.678 96.7138 90.7295V90.9746C96.7138 91.0261 96.7401 91.052 96.7916 91.052H99.7569V99.7937C99.7569 99.8455 99.7955 99.871 99.8473 99.871H100.118C100.156 99.871 100.195 99.8455 100.195 99.794V91.052H103.2C103.251 91.052 103.29 91.0261 103.29 90.975V90.7298C103.29 90.678 103.251 90.6521 103.2 90.6521Z" fill="#3A62AE"/>
<path d="M103.2 90.6521H96.7912C96.7401 90.6521 96.7138 90.678 96.7138 90.7295V90.9746C96.7138 91.0261 96.7401 91.052 96.7916 91.052H99.7569V99.7937C99.7569 99.8455 99.7955 99.871 99.8473 99.871H100.118C100.156 99.871 100.195 99.8455 100.195 99.794V91.052H103.2C103.251 91.052 103.29 91.0261 103.29 90.975V90.7298C103.29 90.678 103.251 90.6521 103.2 90.6521Z" stroke="#3A62AE" stroke-width="0.8" stroke-miterlimit="10"/>
<path d="M110.754 99.4715H105.88V95.3715H110.29C110.341 95.3715 110.38 95.3456 110.38 95.2938V95.0487C110.38 94.9975 110.341 94.9716 110.29 94.9716H105.88V91.052H110.56C110.612 91.052 110.638 91.0264 110.638 90.9746V90.7295C110.638 90.6784 110.612 90.6521 110.56 90.6521H105.532C105.48 90.6521 105.442 90.6784 105.442 90.7291V99.794C105.442 99.8455 105.48 99.871 105.532 99.871H110.754C110.806 99.871 110.832 99.8455 110.832 99.794V99.5489C110.832 99.4974 110.806 99.4715 110.754 99.4715Z" fill="#3A62AE"/>
<path d="M110.754 99.4715H105.88V95.3715H110.29C110.341 95.3715 110.38 95.3456 110.38 95.2938V95.0487C110.38 94.9975 110.341 94.9716 110.29 94.9716H105.88V91.052H110.56C110.612 91.052 110.638 91.0264 110.638 90.9746V90.7295C110.638 90.6784 110.612 90.6521 110.56 90.6521H105.532C105.48 90.6521 105.442 90.6784 105.442 90.7291V99.794C105.442 99.8455 105.48 99.871 105.532 99.871H110.754C110.806 99.871 110.832 99.8455 110.832 99.794V99.5489C110.832 99.4974 110.806 99.4715 110.754 99.4715Z" stroke="#3A62AE" stroke-width="0.8" stroke-miterlimit="10"/>
<path d="M113.886 95.5519V91.052H116.362C118.025 91.052 119.005 91.8644 119.005 93.3082C119.005 94.7654 118.025 95.5515 116.362 95.5515L113.886 95.5519ZM116.594 95.9385C118.373 95.8485 119.43 94.8813 119.43 93.3086C119.43 91.6323 118.257 90.6521 116.362 90.6521H113.538C113.486 90.6521 113.448 90.6784 113.448 90.7291V99.7937C113.448 99.8455 113.486 99.871 113.538 99.871H113.809C113.848 99.871 113.886 99.8455 113.886 99.794V95.9511H116.091L119.07 99.8192C119.082 99.8577 119.134 99.8707 119.173 99.8707H119.521C119.585 99.8707 119.598 99.8192 119.572 99.7674L116.594 95.9385Z" fill="#3A62AE"/>
<path d="M113.886 95.5519V91.052H116.362C118.025 91.052 119.005 91.8644 119.005 93.3082C119.005 94.7654 118.025 95.5515 116.362 95.5515H113.886V95.5519ZM116.594 95.9385C118.373 95.8485 119.43 94.8813 119.43 93.3086C119.43 91.6323 118.257 90.6521 116.362 90.6521H113.538C113.486 90.6521 113.448 90.6784 113.448 90.7291V99.7937C113.448 99.8455 113.486 99.871 113.538 99.871H113.809C113.848 99.871 113.886 99.8455 113.886 99.794V95.9511H116.091L119.07 99.8192C119.082 99.8577 119.134 99.8707 119.173 99.8707H119.521C119.585 99.8707 119.598 99.8192 119.572 99.7674L116.594 95.9381V95.9385Z" stroke="#3A62AE" stroke-width="0.8" stroke-miterlimit="10"/>
<path d="M56.408 19.3001L56.4094 19.3036C56.8295 20.5121 57.2942 21.7047 57.8025 22.879C58.7662 25.0722 59.8153 27.1922 60.8305 29.2425L60.9818 29.5482C63.3189 34.3188 65.1784 38.3399 66.078 43.0236L66.2524 43.9306L66.4222 43.023C66.8449 40.766 66.832 38.2114 66.383 35.4317C65.9516 32.7072 65.1406 30.0878 64.4822 28.1093C63.9615 26.5541 63.3883 25.0182 62.8336 23.5327C62.5429 22.7543 62.254 21.9811 61.9756 21.2128C61.2059 19.0739 60.4246 16.8047 60.0661 14.6339C59.6612 12.4007 59.8139 10.4303 60.5213 8.77423L60.6495 8.45136L60.8235 8.1278C60.862 8.05986 60.897 7.99122 60.9331 7.92224C61.0116 7.77131 61.0861 7.62808 61.1944 7.47891C61.4668 7.04694 61.7633 6.63061 62.0824 6.2319C62.7516 5.42893 63.5031 4.77583 64.3159 4.29083C65.1465 3.78866 66.1036 3.41992 67.1583 3.19475C68.1336 2.99304 69.2409 2.9195 70.4483 2.97378C72.5984 3.08409 74.9461 3.58555 77.4247 4.46487L78.2518 4.75797L77.6005 4.16967C76.739 3.39156 75.7144 2.68173 74.4684 2.00167C73.3251 1.37253 72.1134 0.876688 70.857 0.523894C69.4184 0.13589 68.0954 -0.0328998 66.8201 0.00527028C65.3741 0.0455415 63.9244 0.360359 62.6284 0.916451C61.3054 1.48235 60.0563 2.33295 59.0145 3.3779C58.4006 4.00508 57.9681 4.50689 57.619 4.994C57.4442 5.20726 57.2905 5.45204 57.142 5.68876L56.7053 6.38913L56.4571 6.88149C55.818 8.13655 55.3939 9.61818 55.2293 11.1653C55.0973 12.4557 55.1561 13.8064 55.4149 15.4179C55.6299 16.6453 55.9552 17.9147 56.408 19.3001Z" fill="#1E4C85"/>
<path d="M175.54 57.6575C173.91 56.6147 172.236 55.4083 170.567 54.0716C167.421 51.5527 164.435 48.7383 161.547 46.017C158.893 43.5167 156.15 40.9313 153.285 38.5767C149.652 35.5903 144.089 31.581 137.751 31.2421C131.454 30.9052 124.821 34.2211 119.549 40.3381C116.039 44.4104 113.417 49.2184 110.881 53.8682C110.118 55.2665 109.33 56.7124 108.53 58.1148C108.419 58.307 108.305 58.4965 108.185 58.6832C107.421 55.5498 106.991 52.4744 106.878 49.2962C106.797 47.2238 106.804 45.6735 106.902 44.2693C107.007 42.6934 107.236 41.0308 107.58 39.3275C108.162 36.4006 109.065 33.5456 110.02 30.5228L110.466 29.1C111.484 25.7711 112.536 22.3292 112.78 18.5461C112.91 16.5056 112.725 14.5211 112.232 12.649C111.771 10.8859 110.932 9.08206 109.734 7.28666C108.424 5.35715 107.018 3.96236 105.436 3.02282C104.484 2.46358 103.438 2.06927 102.412 1.88332C101.416 1.69632 100.358 1.67741 99.266 1.82659C97.2269 2.10254 95.4347 2.83092 93.8007 3.57716C92.5208 4.17213 91.286 4.81962 90.0922 5.44645C89.7351 5.63415 89.3786 5.82114 89.0224 6.00639C87.3128 6.90531 85.8652 7.61164 84.3559 8.13551C82.9751 8.61106 81.3495 8.94654 79.3885 9.16085C77.6794 9.33174 75.9558 9.2927 74.2562 9.04459C72.4009 8.77284 70.7306 8.27384 69.2924 7.55981L69.1173 7.86307C71.8865 9.70784 75.4622 10.6961 79.4564 10.7223C80.2531 10.7384 81.1223 10.6915 82.2054 10.5759L83.5641 10.3879C84.0255 10.3084 84.4838 10.2115 84.9379 10.0972C86.8009 9.62309 88.5735 8.90312 90.0905 8.26543C90.6137 8.04131 91.1323 7.81369 91.6478 7.58782C92.7715 7.09371 93.8322 6.62762 94.9171 6.213C96.8543 5.47376 98.2964 5.10817 99.5934 5.02797C101.125 4.92782 102.47 5.2577 103.594 6.00779C104.662 6.71166 105.664 7.82875 106.573 9.32929C108.224 12.0036 108.908 15.0023 108.607 18.2436C108.306 21.5374 107.137 24.9622 106.106 27.9839C105.1 30.9521 103.849 34.6466 103.053 38.3897C102.649 40.2908 102.375 42.1555 102.239 43.932C102.106 45.7096 102.084 47.5302 102.17 49.4986C102.258 51.3812 102.443 53.2378 102.717 55.0161C102.971 56.6822 103.343 58.4503 103.857 60.4208L104.177 61.6759L104.18 61.6885C104.016 61.6838 103.853 61.6632 103.693 61.6268C102.447 61.3292 101.62 60.1421 100.88 58.9507L94.5238 48.7212C93.0072 46.28 91.4387 43.7555 89.1947 41.84C86.6937 39.7057 83.6418 38.777 81.0295 39.3572C78.9448 39.8209 77.2093 41.1607 75.5312 42.4557L75.4041 42.5537C70.9977 45.954 65.752 49.3333 60.2362 48.6035C55.6043 47.9921 52.1845 44.8313 48.5635 41.485C46.2625 39.3583 43.8833 37.1595 41.1628 35.6761C37.8076 33.8471 33.7693 33.0819 29.4817 33.4629C25.5557 33.8124 21.5395 35.0892 17.8685 37.1539C10.7352 41.1663 5.27798 47.3733 0 53.3758L0.260888 53.6094C5.34556 48.0344 10.6036 42.269 17.325 38.521C24.7853 34.3626 32.9408 33.7123 39.1422 36.7816C42.2854 38.3375 44.9794 40.8431 47.5844 43.2663C51.1549 46.5878 54.8473 50.0221 59.6682 50.9038C66.5658 52.1638 73.3125 47.6503 78.2389 44.3537C79.8329 43.2866 81.533 42.2645 83.2997 42.5054C85.1616 42.76 86.5606 44.3375 87.795 46.0048C90.7319 49.9736 93.3577 54.1634 95.649 58.5368C97.6961 62.447 100.288 66.3886 104.08 66.3879C104.267 66.3879 104.458 66.3781 104.651 66.3585C107.867 66.0294 109.918 62.9449 111.347 60.2944C112.144 58.8131 112.919 57.2846 113.668 55.8061C115.786 51.6284 117.975 47.3092 120.921 43.5976C125.435 37.9117 131.222 34.6704 136.839 34.6704C136.927 34.6704 137.014 34.6711 137.101 34.6728C143.178 34.7824 148.53 38.5529 152.963 42.2273C154.875 43.8123 156.774 45.4833 158.61 47.1001C162.314 50.3611 166.145 53.7326 170.287 56.5688C175.472 60.1189 183.239 64.2385 190.779 63.7055L190.784 63.3567C185.798 62.8535 180.669 60.9359 175.54 57.6575" fill="#1E4C85"/>
</svg>
