<svg width="715" height="500" viewBox="0 0 715 500" fill="none" xmlns="http://www.w3.org/2000/svg">
<g clip-path="url(#clip0_90_1028)">
<path d="M365.165 498.94C386.669 498.94 404.103 481.641 404.103 460.302C404.103 438.962 386.669 421.663 365.165 421.663C343.66 421.663 326.227 438.962 326.227 460.302C326.227 481.641 343.66 498.94 365.165 498.94Z" fill="#0C446C"/>
<path d="M597.783 496.769C619.567 490.278 642.726 483.508 660.002 468.075C675.44 454.285 685.862 433.226 679.467 412.544C673.084 391.904 653.967 378.142 634.229 371.297C623.035 367.415 611.323 365.261 599.616 363.569C586.889 361.73 574.106 360.223 561.329 358.773C509.594 352.901 457.664 349.314 405.54 348.012C379.82 347.369 354.105 347.385 328.381 347.755C305.408 348.086 281.214 348.078 259.902 338.389C243.329 330.855 228.288 317.147 223.67 299.134C218.339 278.341 228.171 257.167 242.275 242.107C249.71 234.17 258.399 227.489 267.362 221.346C277.086 214.681 287.149 208.489 297.429 202.708C317.678 191.329 338.848 181.645 360.718 173.756C371.507 169.863 382.456 166.505 393.5 163.406C402.826 160.79 412.18 158.17 421.193 154.606C438.617 147.715 455.189 136.043 459.619 116.907C463.818 98.7707 456.738 79.0825 444.327 65.6095C429.969 50.0223 408.318 43.1893 387.562 42.0837C364.26 40.8426 341.495 46.6296 319.593 53.9742C296.233 61.8077 273.376 70.8149 249.523 77.16C225.869 83.4458 201.757 87.8933 177.406 90.4621C165.486 91.7217 153.205 93.1439 141.214 92.1797C131.164 91.3715 121.166 88.4387 113.759 81.3612C107.409 75.2926 103.625 66.9524 104.926 58.1509C105.162 56.5523 107.61 57.2319 107.375 58.8208C105.791 69.5347 113.131 79.4072 122.175 84.4644C132.627 90.3092 145.346 90.3171 156.983 89.6487C182.216 88.1364 207.278 84.5414 231.909 78.9008C256.112 73.4153 279.451 65.5736 302.763 57.1968C324.903 49.241 347.539 41.4762 371.192 39.753C391.716 38.2578 413.306 41.2248 431.186 51.8679C446.9 61.2218 458.455 76.821 462.137 94.7215C465.735 112.213 460.752 129.819 447.408 142.026C433.592 154.664 414.649 160.068 396.995 165.044C374.603 171.356 352.692 178.734 331.484 188.314C309.986 197.997 289.369 209.499 269.86 222.692C251.029 235.461 232.445 251.529 226.489 274.309C223.715 284.92 224.227 296.175 228.869 306.198C232.997 315.11 239.794 322.607 247.713 328.389C266.607 342.185 290.42 345.017 313.243 345.299C338.875 345.616 364.509 344.757 390.15 345.175C442.405 346.026 494.553 349.182 546.595 354.643C559.635 356.013 572.659 357.527 585.666 359.185C597.366 360.677 609.105 362.159 620.607 364.808C641.06 369.519 660.962 378.577 673.675 395.785C679.317 403.243 682.812 412.082 683.788 421.358C684.678 431.038 682.29 440.736 677.879 449.347C668.117 468.406 649.832 480.529 630.414 488.493C620.014 492.759 609.225 495.991 598.458 499.199C596.89 499.667 596.219 497.236 597.783 496.77L597.783 496.769Z" fill="#2A8CB4"/>
<path d="M106.566 78.5369C117.785 78.5369 126.881 69.5113 126.881 58.3777C126.881 47.2441 117.785 38.2185 106.566 38.2185C95.3456 38.2185 86.25 47.2441 86.25 58.3777C86.25 69.5113 95.3456 78.5369 106.566 78.5369Z" fill="white"/>
<path d="M247.504 116.755C258.724 116.755 267.819 107.73 267.819 96.5962C267.819 85.4626 258.724 76.437 247.504 76.437C236.284 76.437 227.188 85.4626 227.188 96.5962C227.188 107.73 236.284 116.755 247.504 116.755Z" fill="white"/>
<path d="M366.857 40.3184C378.077 40.3184 387.173 31.2928 387.173 20.1592C387.173 9.02558 378.077 0 366.857 0C355.638 0 346.542 9.02558 346.542 20.1592C346.542 31.2928 355.638 40.3184 366.857 40.3184Z" fill="white"/>
<path d="M441.348 125.995C452.568 125.995 461.663 116.969 461.663 105.836C461.663 94.7022 452.568 85.6766 441.348 85.6766C430.128 85.6766 421.032 94.7022 421.032 105.836C421.032 116.969 430.128 125.995 441.348 125.995Z" fill="white"/>
<path d="M340.617 225.111C351.837 225.111 360.933 216.086 360.933 204.952C360.933 193.818 351.837 184.793 340.617 184.793C329.397 184.793 320.302 193.818 320.302 204.952C320.302 216.086 329.397 225.111 340.617 225.111Z" fill="white"/>
<path d="M212.799 272.989C224.019 272.989 233.114 263.964 233.114 252.83C233.114 241.696 224.019 232.671 212.799 232.671C201.579 232.671 192.483 241.696 192.483 252.83C192.483 263.964 201.579 272.989 212.799 272.989Z" fill="white"/>
<path d="M348.235 347.746C359.455 347.746 368.551 338.721 368.551 327.587C368.551 316.453 359.455 307.428 348.235 307.428C337.015 307.428 327.92 316.453 327.92 327.587C327.92 338.721 337.015 347.746 348.235 347.746Z" fill="white"/>
<path d="M493.83 389.745C505.05 389.745 514.146 380.719 514.146 369.585C514.146 358.452 505.05 349.426 493.83 349.426C482.61 349.426 473.515 358.452 473.515 369.585C473.515 380.719 482.61 389.745 493.83 389.745Z" fill="white"/>
<path d="M663.972 380.505C675.192 380.505 684.287 371.479 684.287 360.346C684.287 349.212 675.192 340.187 663.972 340.187C652.752 340.187 643.656 349.212 643.656 360.346C643.656 371.479 652.752 380.505 663.972 380.505Z" fill="white"/>
<path d="M360.994 57.1206C300.139 57.5472 250.311 106.62 249.447 167.002C249.439 167.56 249.435 171.479 249.436 176.606C249.436 184.124 252.445 191.333 257.802 196.649C263.159 201.964 270.424 204.951 277.999 204.952H277.999C281.754 204.951 285.473 204.216 288.942 202.789C292.411 201.361 295.562 199.27 298.216 196.633C300.87 193.997 302.974 190.867 304.409 187.424C305.844 183.98 306.58 180.289 306.577 176.563C306.574 173.075 306.573 170.661 306.573 170.513C306.571 161.181 309.017 152.009 313.67 143.9C318.324 135.791 325.025 129.023 333.114 124.263C341.203 119.503 350.401 116.915 359.804 116.752C369.207 116.59 378.491 118.859 386.742 123.336C394.993 127.814 401.927 134.346 406.863 142.29C411.798 150.233 414.565 159.315 414.89 168.641C415.216 177.968 413.089 187.218 408.719 195.481C404.349 203.744 397.887 210.737 389.968 215.77L389.978 215.782C389.978 215.782 349.323 241.754 336.928 277.381L336.939 277.384C334.759 284.683 333.655 292.256 333.66 299.868C333.66 302.997 333.845 330.377 334.204 352.599C334.329 360.267 337.487 367.578 342.997 372.956C348.506 378.334 355.925 381.347 363.653 381.345H363.653C367.536 381.345 371.381 380.583 374.966 379.103C378.551 377.622 381.806 375.453 384.544 372.72C387.281 369.987 389.446 366.744 390.916 363.177C392.385 359.61 393.129 355.79 393.105 351.937C392.981 331.586 392.914 307.888 392.914 306.168C392.914 284.291 414.182 262.494 431.652 248.28C451.769 231.911 466.245 209.605 472.06 184.443C473.347 179.262 474.056 173.957 474.176 168.623C474.176 153.912 471.242 139.347 465.544 125.766C459.846 112.185 451.496 99.8572 440.976 89.4927C430.455 79.1281 417.971 70.9318 404.244 65.3759C390.517 59.82 375.818 57.0143 360.994 57.1206Z" fill="#0C446C"/>
<path d="M713.992 500H1.0079C0.741101 499.999 0.485496 499.894 0.29711 499.706C0.108725 499.519 0.00292969 499.265 0.00292969 499C0.00292969 498.735 0.108725 498.481 0.29711 498.294C0.485496 498.106 0.741101 498.001 1.0079 498H713.992C714.26 498 714.516 498.105 714.705 498.293C714.894 498.48 715 498.735 715 499C715 499.265 714.894 499.52 714.705 499.707C714.516 499.895 714.26 500 713.992 500Z" fill="#161616"/>
<path d="M531.969 229.308C545.994 229.308 557.363 218.026 557.363 204.109C557.363 190.192 545.994 178.91 531.969 178.91C517.944 178.91 506.574 190.192 506.574 204.109C506.574 218.026 517.944 229.308 531.969 229.308Z" fill="#2F2E41"/>
<path d="M485.043 488.969H474.666L469.729 449.249H485.046L485.043 488.969Z" fill="#A0616A"/>
<path d="M467.253 486.026H487.267V498.531H454.651C454.651 496.889 454.977 495.263 455.611 493.746C456.244 492.229 457.172 490.85 458.342 489.689C459.512 488.528 460.902 487.607 462.43 486.978C463.959 486.35 465.598 486.026 467.253 486.026Z" fill="#2F2E41"/>
<path d="M565.458 488.969H555.081L550.144 449.249H565.461L565.458 488.969Z" fill="#A0616A"/>
<path d="M547.668 486.026H567.682V498.531H535.066C535.066 496.889 535.392 495.263 536.026 493.746C536.659 492.229 537.587 490.85 538.757 489.689C539.927 488.528 541.317 487.607 542.845 486.978C544.374 486.35 546.013 486.026 547.668 486.026Z" fill="#2F2E41"/>
<path d="M528.11 229.455C539.592 229.455 548.9 220.218 548.9 208.824C548.9 197.43 539.592 188.194 528.11 188.194C516.628 188.194 507.319 197.43 507.319 208.824C507.319 220.218 516.628 229.455 528.11 229.455Z" fill="#A0616A"/>
<path d="M540.502 296.009L549.804 274.8C552.064 269.825 552.711 264.276 551.658 258.92C550.604 253.564 547.901 248.664 543.922 244.897C543.104 244.096 542.236 243.346 541.323 242.655C536.733 239.091 531.076 237.149 525.248 237.136C521.33 237.151 517.461 238.005 513.905 239.639C513.6 239.773 513.304 239.916 512.999 240.059C512.415 240.336 511.84 240.639 511.281 240.949C507.637 243.026 504.536 245.923 502.227 249.407C499.919 252.891 498.468 256.865 497.991 261.008L493.886 295.144C492.853 297.824 456.015 394.588 468.898 468.463C469.035 469.252 469.423 469.976 470.005 470.531C470.586 471.086 471.332 471.441 472.132 471.546L485.193 473.309C486.147 473.439 487.114 473.205 487.901 472.655C488.688 472.105 489.236 471.279 489.434 470.344L511.349 366.684C511.486 366.04 511.836 365.46 512.344 365.037C512.852 364.613 513.488 364.371 514.151 364.349C514.814 364.327 515.465 364.526 516 364.914C516.536 365.302 516.925 365.857 517.105 366.491L548.069 475.502C548.29 476.294 548.766 476.992 549.425 477.49C550.084 477.987 550.89 478.257 551.718 478.257C551.965 478.255 552.211 478.233 552.454 478.19L568.41 475.141C569.338 474.969 570.167 474.459 570.736 473.711C571.304 472.964 571.571 472.033 571.483 471.1C569.138 445.154 556.678 315.186 540.502 296.009Z" fill="#2F2E41"/>
<path d="M447.313 225.993C447.169 227.219 447.297 228.462 447.69 229.634C448.082 230.806 448.728 231.879 449.583 232.776C450.438 233.673 451.481 234.373 452.638 234.827C453.795 235.281 455.039 235.478 456.281 235.403L467.902 263.116L476.693 250.185L464.31 225.851C464.045 223.789 463.028 221.895 461.45 220.527C459.872 219.159 457.843 218.414 455.748 218.431C453.653 218.448 451.637 219.228 450.083 220.622C448.528 222.015 447.543 223.926 447.313 225.993L447.313 225.993Z" fill="#A0616A"/>
<path d="M526.957 323.913C528.193 323.767 529.381 323.353 530.438 322.702C531.495 322.05 532.395 321.177 533.075 320.142C533.755 319.108 534.199 317.939 534.374 316.716C534.549 315.494 534.452 314.248 534.09 313.067L558.541 295.395L543.82 289.925L522.858 307.545C520.898 308.281 519.279 309.704 518.306 311.545C517.334 313.387 517.075 315.518 517.581 317.536C518.086 319.553 519.32 321.317 521.048 322.492C522.776 323.668 524.878 324.173 526.957 323.913Z" fill="#A0616A"/>
<path d="M487.097 281.591C486.16 281.59 485.225 281.499 484.306 281.318C482.082 280.898 479.996 279.942 478.232 278.533C476.468 277.124 475.081 275.307 474.192 273.241L457.911 253.541C457.567 253.125 457.316 252.64 457.176 252.119C457.036 251.599 457.009 251.055 457.099 250.524C457.188 249.992 457.39 249.486 457.692 249.039C457.995 248.591 458.39 248.213 458.851 247.93L470.435 240.814C470.862 240.552 471.338 240.376 471.835 240.296C472.332 240.217 472.839 240.236 473.328 240.352C473.817 240.469 474.278 240.68 474.685 240.974C475.091 241.268 475.435 241.64 475.696 242.066L487.171 260.826L509.147 244.71C510.897 243.8 512.918 243.544 514.842 243.991C516.765 244.437 518.463 245.555 519.625 247.141C520.786 248.727 521.334 250.675 521.168 252.628C521.002 254.582 520.133 256.411 518.72 257.781L496.787 277.635C494.209 280.17 490.727 281.592 487.097 281.591Z" fill="#2F2E41"/>
<path d="M546.478 311.219C546.448 311.219 546.418 311.219 546.388 311.218C545.854 311.205 545.329 311.081 544.846 310.854C544.363 310.627 543.934 310.301 543.586 309.899L533.287 297.977C532.937 297.571 532.677 297.096 532.525 296.583C532.373 296.07 532.332 295.531 532.406 295.001C532.479 294.471 532.666 293.963 532.952 293.51C533.238 293.057 533.618 292.669 534.066 292.372L553.35 279.615L535.88 258.774C534.864 257.092 534.491 255.105 534.83 253.173C535.169 251.242 536.197 249.496 537.726 248.254C539.255 247.013 541.183 246.358 543.158 246.411C545.133 246.464 547.023 247.219 548.482 248.541L569.715 269.13C571.386 270.645 572.662 272.54 573.432 274.652C574.203 276.763 574.446 279.029 574.14 281.255C573.834 283.48 572.989 285.598 571.676 287.428C570.363 289.258 568.623 290.744 566.604 291.759L549.25 310.032C548.894 310.407 548.464 310.705 547.987 310.909C547.511 311.113 546.997 311.219 546.478 311.219Z" fill="#2F2E41"/>
<path d="M522.824 267.289C522.658 267.289 522.493 267.279 522.329 267.258C521.612 267.172 520.935 266.883 520.378 266.426C519.822 265.969 519.409 265.363 519.189 264.681L511.45 241.137C511.256 240.542 511.286 239.897 511.534 239.322C511.782 238.747 512.231 238.28 512.799 238.008L513.05 237.891C513.278 237.783 513.503 237.677 513.734 237.575C517.342 235.915 521.27 235.048 525.248 235.036C530.412 235.046 535.461 236.551 539.775 239.368C540.353 239.749 540.757 240.342 540.9 241.016C541.043 241.691 540.913 242.394 540.538 242.975L526.021 265.543C525.68 266.079 525.208 266.52 524.649 266.825C524.09 267.131 523.462 267.291 522.824 267.289Z" fill="#427CBE"/>
<path d="M551.99 192.859C556.58 192.859 560.3 189.167 560.3 184.613C560.3 180.059 556.58 176.367 551.99 176.367C547.401 176.367 543.681 180.059 543.681 184.613C543.681 189.167 547.401 192.859 551.99 192.859Z" fill="#2F2E41"/>
<path d="M523.504 175.55C517.667 175.55 512.069 177.851 507.941 181.946C503.814 186.042 501.495 191.597 501.495 197.389V206.628H512.947L518.425 197.389L520.068 206.628H554.823L545.512 197.389C545.512 191.597 543.193 186.042 539.066 181.946C534.938 177.851 529.341 175.55 523.504 175.55Z" fill="#2F2E41"/>
<path d="M556.261 178.965C557.18 176.114 559.082 173.675 561.634 172.078C564.185 170.481 567.222 169.828 570.211 170.233C575.507 171.112 579.694 175.335 582.189 180.053C584.683 184.771 585.835 190.051 587.512 195.112C589.19 200.173 591.568 205.262 595.802 208.538C600.036 211.814 606.533 212.703 610.691 209.333C610.216 212.845 608.64 216.12 606.187 218.695C603.733 221.27 600.525 223.015 597.018 223.682C593.51 224.349 589.88 223.904 586.641 222.412C583.402 220.919 580.718 218.454 578.968 215.365C576.774 211.491 576.207 206.951 575.557 202.554C574.906 198.158 574.061 193.609 571.441 190.005C568.821 186.401 563.918 184.047 559.756 185.689L556.261 178.965Z" fill="#2F2E41"/>
<path d="M286.065 191.545C278.489 191.544 271.224 188.557 265.867 183.241C260.511 177.926 257.501 170.716 257.501 163.199C257.501 158.072 257.504 154.152 257.512 153.595C257.753 136.034 262.21 118.783 270.513 103.273C256.871 121.806 249.37 144.087 249.047 167.034C249.039 167.592 249.036 171.512 249.036 176.639C249.037 184.156 252.046 191.365 257.403 196.681C262.759 201.997 270.024 204.983 277.6 204.984C283.825 204.982 289.879 202.963 294.843 199.235C299.806 195.507 303.408 190.273 305.1 184.329C299.87 188.983 293.09 191.553 286.065 191.545Z" fill="#3F3D56"/>
<path d="M362.93 116.847C371.688 117.262 380.213 119.78 387.774 124.185C395.335 128.59 401.706 134.75 406.34 142.136C410.973 149.522 413.731 157.914 414.376 166.591C415.021 175.268 413.535 183.97 410.044 191.951C415.093 186.067 418.804 179.171 420.924 171.735C423.045 164.298 423.524 156.496 422.33 148.859C421.135 141.222 418.296 133.93 414.004 127.481C409.713 121.031 404.07 115.576 397.461 111.487C390.853 107.398 383.433 104.771 375.708 103.785C367.984 102.799 360.135 103.478 352.699 105.775C345.263 108.071 338.413 111.932 332.616 117.094C326.82 122.256 322.213 128.597 319.11 135.686C324.473 129.426 331.213 124.472 338.81 121.205C346.408 117.939 354.66 116.448 362.93 116.847Z" fill="#3F3D56"/>
<path d="M371.719 367.938C363.99 367.939 356.572 364.926 351.062 359.549C345.553 354.171 342.395 346.86 342.269 339.192C341.911 316.97 341.726 289.59 341.726 286.461C341.721 278.849 342.825 271.275 345.004 263.977L344.994 263.974C346.281 260.311 347.835 256.745 349.645 253.306C344.09 260.651 339.67 268.776 336.529 277.414L336.54 277.416C334.36 284.715 333.256 292.288 333.261 299.9C333.261 303.03 333.446 330.409 333.805 352.632C333.93 360.299 337.088 367.61 342.597 372.988C348.107 378.366 355.526 381.379 363.254 381.377C369.626 381.376 375.825 379.325 380.923 375.531C386.021 371.738 389.742 366.407 391.528 360.337C386.113 365.237 379.046 367.948 371.719 367.938Z" fill="#3F3D56"/>
<path d="M107.114 489.352L117.491 489.351L122.428 449.631L107.111 449.632L107.114 489.352Z" fill="#FFB8B8"/>
<path d="M137.506 498.913L104.89 498.915L104.89 486.41L124.904 486.409C128.246 486.409 131.451 487.726 133.815 490.071C136.178 492.416 137.506 495.597 137.506 498.913L137.506 498.913Z" fill="#2F2E41"/>
<path d="M69.8687 489.352L80.2457 489.351L85.1832 449.631L69.8662 449.632L69.8687 489.352Z" fill="#FFB8B8"/>
<path d="M100.261 498.913L67.6453 498.915L67.6447 486.41L87.6588 486.409C91.0009 486.409 94.2061 487.726 96.5695 490.071C98.9328 492.416 100.261 495.597 100.261 498.913L100.261 498.913Z" fill="#2F2E41"/>
<path d="M78.9376 477.136L68.8011 476.607C68.2784 476.58 67.7663 476.45 67.2946 476.225C66.8229 476 66.4009 475.684 66.053 475.296C65.7051 474.908 65.4383 474.455 65.268 473.964C65.0977 473.473 65.0273 472.953 65.0609 472.435L77.1763 339.329L132.969 354.268L138.344 352.813L121.534 470.647C121.391 471.534 120.947 472.345 120.277 472.948C119.606 473.55 118.748 473.907 117.845 473.961L106.918 474.466C106.372 474.496 105.825 474.413 105.312 474.223C104.8 474.033 104.333 473.739 103.94 473.361C103.548 472.982 103.239 472.527 103.033 472.024C102.827 471.521 102.729 470.981 102.744 470.438L104.724 399.716C104.733 399.389 104.618 399.07 104.403 398.823C104.187 398.575 103.886 398.417 103.558 398.379C103.231 398.341 102.901 398.426 102.633 398.618C102.366 398.809 102.181 399.093 102.114 399.413L83.0197 474.013C82.8395 474.898 82.3555 475.694 81.6502 476.264C80.9449 476.835 80.062 477.145 79.152 477.142C79.081 477.142 79.0096 477.14 78.9376 477.136Z" fill="#161616"/>
<path d="M108.978 230.42C120.46 230.42 129.768 221.183 129.768 209.789C129.768 198.395 120.46 189.159 108.978 189.159C97.4957 189.159 88.1875 198.395 88.1875 209.789C88.1875 221.183 97.4957 230.42 108.978 230.42Z" fill="#FFB8B8"/>
<path d="M74.3626 270.4L76.6486 319.343L77.475 337.149C77.5079 337.924 77.7731 338.672 78.2367 339.297C78.7003 339.921 79.3411 340.395 80.0773 340.656L133.69 359.928C134.123 360.088 134.582 360.167 135.044 360.163C135.572 360.166 136.095 360.063 136.582 359.86C137.069 359.658 137.51 359.36 137.879 358.985C138.247 358.609 138.536 358.164 138.727 357.675C138.918 357.187 139.008 356.665 138.992 356.142L136.794 268.141C136.649 260.921 133.971 253.977 129.22 248.506C124.47 243.036 117.945 239.381 110.77 238.173C110.251 238.095 109.724 238.016 109.196 237.946C104.747 237.398 100.231 237.824 95.9658 239.194C91.7006 240.564 87.7897 242.845 84.5084 245.877C81.1107 248.978 78.4408 252.781 76.6876 257.019C74.9345 261.257 74.1408 265.825 74.3626 270.4L74.3626 270.4Z" fill="#427CBE"/>
<path d="M159.3 350.162C158.032 349.771 156.874 349.092 155.917 348.179C154.961 347.265 154.233 346.142 153.791 344.9C153.35 343.657 153.207 342.329 153.375 341.022C153.542 339.715 154.015 338.465 154.756 337.372L136.575 313.383L152.264 312.419L167.123 335.348C168.714 336.568 169.821 338.305 170.25 340.255C170.679 342.204 170.403 344.241 169.469 346.009C168.536 347.776 167.006 349.161 165.146 349.92C163.287 350.68 161.217 350.765 159.3 350.162H159.3Z" fill="#FFB8B8"/>
<path d="M146.518 333.031C146.037 332.837 145.598 332.55 145.229 332.187C144.86 331.824 144.567 331.392 144.367 330.915L116.977 266.159C116.439 264.891 116.159 263.53 116.152 262.155C116.144 260.779 116.41 259.416 116.934 258.143C117.458 256.869 118.23 255.711 119.205 254.733C120.18 253.756 121.34 252.979 122.618 252.447C123.897 251.914 125.268 251.637 126.654 251.631C128.04 251.625 129.414 251.89 130.697 252.411C131.98 252.932 133.147 253.698 134.131 254.667C135.115 255.635 135.897 256.787 136.432 258.056L163.823 322.813C164.228 323.773 164.232 324.854 163.836 325.817C163.439 326.781 162.673 327.548 161.706 327.952L149.546 333.016C149.068 333.218 148.554 333.322 148.034 333.325C147.514 333.327 146.999 333.227 146.518 333.031L146.518 333.031Z" fill="#427CBE"/>
<path d="M102.293 330.747L128.601 280.761C129.108 279.8 129.979 279.078 131.023 278.753C132.066 278.428 133.197 278.527 134.167 279.028L172.353 298.818C173.321 299.321 174.049 300.185 174.377 301.221C174.704 302.256 174.604 303.378 174.099 304.341L147.791 354.326C147.284 355.287 146.413 356.01 145.37 356.335C144.326 356.66 143.196 356.56 142.226 356.059L104.04 336.27C103.071 335.766 102.343 334.902 102.016 333.867C101.688 332.831 101.788 331.709 102.293 330.747Z" fill="#3F3D56"/>
<path d="M119.936 307.91C119.469 306.677 118.717 305.569 117.741 304.676C116.766 303.782 115.593 303.127 114.317 302.763C113.041 302.399 111.697 302.336 110.392 302.579C109.087 302.822 107.858 303.365 106.801 304.163L81.5946 287.57L81.5518 303.168L105.495 316.534C106.817 318.037 108.63 319.031 110.616 319.341C112.603 319.651 114.636 319.257 116.358 318.228C118.081 317.199 119.384 315.601 120.038 313.714C120.693 311.828 120.656 309.773 119.936 307.91Z" fill="#FFB8B8"/>
<path d="M88.0659 311.418L67.4653 295.225C65.2367 294.482 63.223 293.214 61.597 291.529C59.9711 289.845 58.7814 287.793 58.1301 285.552C57.4789 283.31 57.3855 280.946 57.858 278.66C58.3305 276.375 59.3548 274.238 60.8429 272.432L79.5477 248.107C80.8475 246.531 82.6756 245.472 84.6977 245.123C86.7198 244.774 88.8008 245.159 90.5605 246.207C92.3201 247.255 93.6408 248.897 94.2811 250.832C94.9214 252.767 94.8385 254.866 94.0476 256.746L79.2479 280.769L100.997 291.005C101.503 291.243 101.952 291.585 102.315 292.008C102.678 292.431 102.946 292.926 103.102 293.459C103.258 293.993 103.298 294.553 103.219 295.103C103.141 295.653 102.945 296.18 102.646 296.649L93.8669 310.437C93.5701 310.902 93.1781 311.3 92.7164 311.606C92.2546 311.911 91.7334 312.117 91.1863 312.21C91.1646 312.214 91.1427 312.217 91.1209 312.22C90.5834 312.301 90.035 312.271 89.5095 312.133C88.9841 311.995 88.4927 311.752 88.0659 311.418Z" fill="#427CBE"/>
<path d="M93.2673 223.604C93.1781 223.345 93.1498 223.069 93.1846 222.797C93.2194 222.526 93.3163 222.266 93.468 222.037C93.6197 221.809 93.822 221.618 94.0596 221.479C94.2972 221.34 94.5637 221.257 94.8387 221.236C95.4018 221.266 95.9528 221.409 96.4585 221.657C96.9643 221.905 97.4142 222.251 97.7811 222.676C98.5335 223.537 99.4095 224.283 100.381 224.891C101.387 225.394 102.751 225.323 103.324 224.364C103.862 223.463 103.493 222.257 103.167 221.211C102.338 218.549 101.874 215.789 101.788 213.004C101.694 209.896 102.136 206.652 103.87 204.228C106.108 201.1 110.11 199.912 113.897 199.998C117.684 200.084 121.41 201.244 125.161 201.977C126.456 202.231 127.978 202.36 128.844 201.364C129.765 200.305 129.427 198.591 129.035 197.161C128.019 193.451 126.94 189.614 124.579 186.618C122.025 183.504 118.377 181.466 114.369 180.914C110.522 180.441 106.616 180.881 102.974 182.198C97.0389 184.054 91.8167 187.664 88.0055 192.545C84.0767 197.736 82.3791 204.259 83.2838 210.689C84.1676 216.288 87.1579 221.347 91.6519 224.846L93.2673 223.604Z" fill="#2F2E41"/>
<path d="M356.586 489.516C351.054 487.125 346.159 483.492 342.285 478.902C338.411 474.312 335.665 468.892 334.264 463.069C332.863 457.246 332.844 451.179 334.211 445.348C335.577 439.517 338.29 434.08 342.136 429.468C337.677 432.699 333.961 436.834 331.235 441.599C328.509 446.363 326.836 451.649 326.326 457.105C325.817 462.56 326.482 468.061 328.279 473.242C330.075 478.423 332.961 483.165 336.746 487.155C340.531 491.144 345.127 494.289 350.23 496.381C355.334 498.473 360.827 499.464 366.345 499.288C371.864 499.112 377.282 497.773 382.239 495.361C387.197 492.948 391.58 489.517 395.099 485.295C389.611 489.276 383.167 491.76 376.41 492.501C369.652 493.241 362.818 492.212 356.586 489.516Z" fill="#3F3D56"/>
</g>
<defs>
<clipPath id="clip0_90_1028">
<rect width="715" height="500" fill="white"/>
</clipPath>
</defs>
</svg>
