<svg width="46" height="60" viewBox="0 0 46 60" fill="none" xmlns="http://www.w3.org/2000/svg">
<path d="M38 3.75C38.9946 3.75 39.9484 4.14509 40.6516 4.84835C41.3549 5.55161 41.75 6.50544 41.75 7.5V52.5C41.75 53.4946 41.3549 54.4484 40.6516 55.1516C39.9484 55.8549 38.9946 56.25 38 56.25H8C7.00544 56.25 6.05161 55.8549 5.34835 55.1516C4.64509 54.4484 4.25 53.4946 4.25 52.5V7.5C4.25 6.50544 4.64509 5.55161 5.34835 4.84835C6.05161 4.14509 7.00544 3.75 8 3.75H38ZM8 0C6.01088 0 4.10322 0.790176 2.6967 2.1967C1.29018 3.60322 0.5 5.51088 0.5 7.5V52.5C0.5 54.4891 1.29018 56.3968 2.6967 57.8033C4.10322 59.2098 6.01088 60 8 60H38C39.9891 60 41.8968 59.2098 43.3033 57.8033C44.7098 56.3968 45.5 54.4891 45.5 52.5V7.5C45.5 5.51088 44.7098 3.60322 43.3033 2.1967C41.8968 0.790176 39.9891 0 38 0L8 0Z" fill="#7CC04C"/>
<path d="M8 9.375C8 8.87772 8.19754 8.40081 8.54918 8.04918C8.90081 7.69754 9.37772 7.5 9.875 7.5H36.125C36.6223 7.5 37.0992 7.69754 37.4508 8.04918C37.8025 8.40081 38 8.87772 38 9.375V16.875C38 17.3723 37.8025 17.8492 37.4508 18.2008C37.0992 18.5525 36.6223 18.75 36.125 18.75H9.875C9.37772 18.75 8.90081 18.5525 8.54918 18.2008C8.19754 17.8492 8 17.3723 8 16.875V9.375ZM8 24.375C8 23.8777 8.19754 23.4008 8.54918 23.0492C8.90081 22.6975 9.37772 22.5 9.875 22.5H13.625C14.1223 22.5 14.5992 22.6975 14.9508 23.0492C15.3025 23.4008 15.5 23.8777 15.5 24.375V28.125C15.5 28.6223 15.3025 29.0992 14.9508 29.4508C14.5992 29.8025 14.1223 30 13.625 30H9.875C9.37772 30 8.90081 29.8025 8.54918 29.4508C8.19754 29.0992 8 28.6223 8 28.125V24.375ZM8 35.625C8 35.1277 8.19754 34.6508 8.54918 34.2992C8.90081 33.9475 9.37772 33.75 9.875 33.75H13.625C14.1223 33.75 14.5992 33.9475 14.9508 34.2992C15.3025 34.6508 15.5 35.1277 15.5 35.625V39.375C15.5 39.8723 15.3025 40.3492 14.9508 40.7008C14.5992 41.0525 14.1223 41.25 13.625 41.25H9.875C9.37772 41.25 8.90081 41.0525 8.54918 40.7008C8.19754 40.3492 8 39.8723 8 39.375V35.625ZM8 46.875C8 46.3777 8.19754 45.9008 8.54918 45.5492C8.90081 45.1975 9.37772 45 9.875 45H13.625C14.1223 45 14.5992 45.1975 14.9508 45.5492C15.3025 45.9008 15.5 46.3777 15.5 46.875V50.625C15.5 51.1223 15.3025 51.5992 14.9508 51.9508C14.5992 52.3025 14.1223 52.5 13.625 52.5H9.875C9.37772 52.5 8.90081 52.3025 8.54918 51.9508C8.19754 51.5992 8 51.1223 8 50.625V46.875ZM19.25 24.375C19.25 23.8777 19.4475 23.4008 19.7992 23.0492C20.1508 22.6975 20.6277 22.5 21.125 22.5H24.875C25.3723 22.5 25.8492 22.6975 26.2008 23.0492C26.5525 23.4008 26.75 23.8777 26.75 24.375V28.125C26.75 28.6223 26.5525 29.0992 26.2008 29.4508C25.8492 29.8025 25.3723 30 24.875 30H21.125C20.6277 30 20.1508 29.8025 19.7992 29.4508C19.4475 29.0992 19.25 28.6223 19.25 28.125V24.375ZM19.25 35.625C19.25 35.1277 19.4475 34.6508 19.7992 34.2992C20.1508 33.9475 20.6277 33.75 21.125 33.75H24.875C25.3723 33.75 25.8492 33.9475 26.2008 34.2992C26.5525 34.6508 26.75 35.1277 26.75 35.625V39.375C26.75 39.8723 26.5525 40.3492 26.2008 40.7008C25.8492 41.0525 25.3723 41.25 24.875 41.25H21.125C20.6277 41.25 20.1508 41.0525 19.7992 40.7008C19.4475 40.3492 19.25 39.8723 19.25 39.375V35.625ZM19.25 46.875C19.25 46.3777 19.4475 45.9008 19.7992 45.5492C20.1508 45.1975 20.6277 45 21.125 45H24.875C25.3723 45 25.8492 45.1975 26.2008 45.5492C26.5525 45.9008 26.75 46.3777 26.75 46.875V50.625C26.75 51.1223 26.5525 51.5992 26.2008 51.9508C25.8492 52.3025 25.3723 52.5 24.875 52.5H21.125C20.6277 52.5 20.1508 52.3025 19.7992 51.9508C19.4475 51.5992 19.25 51.1223 19.25 50.625V46.875ZM30.5 24.375C30.5 23.8777 30.6975 23.4008 31.0492 23.0492C31.4008 22.6975 31.8777 22.5 32.375 22.5H36.125C36.6223 22.5 37.0992 22.6975 37.4508 23.0492C37.8025 23.4008 38 23.8777 38 24.375V28.125C38 28.6223 37.8025 29.0992 37.4508 29.4508C37.0992 29.8025 36.6223 30 36.125 30H32.375C31.8777 30 31.4008 29.8025 31.0492 29.4508C30.6975 29.0992 30.5 28.6223 30.5 28.125V24.375ZM30.5 35.625C30.5 35.1277 30.6975 34.6508 31.0492 34.2992C31.4008 33.9475 31.8777 33.75 32.375 33.75H36.125C36.6223 33.75 37.0992 33.9475 37.4508 34.2992C37.8025 34.6508 38 35.1277 38 35.625V50.625C38 51.1223 37.8025 51.5992 37.4508 51.9508C37.0992 52.3025 36.6223 52.5 36.125 52.5H32.375C31.8777 52.5 31.4008 52.3025 31.0492 51.9508C30.6975 51.5992 30.5 51.1223 30.5 50.625V35.625Z" fill="#7CC04C"/>
</svg>
