<svg width="727" height="727" viewBox="0 0 727 727" fill="none" xmlns="http://www.w3.org/2000/svg">
<path d="M105.496 423.903H103.292C103.054 423.903 102.818 423.983 102.74 424.218L80.6093 463.226L58.5554 424.218C58.4866 424.116 58.3928 424.034 58.283 423.979C58.1731 423.924 58.051 423.898 57.9283 423.903H55.7198C55.4062 423.903 55.1687 424.061 55.1687 424.376V479.775C55.1687 480.09 55.4062 480.247 55.7198 480.247H57.3745C57.6107 480.247 57.8469 480.09 57.8469 479.775L57.7681 428.001V427.923L79.3482 466.142C79.5057 466.3 79.7419 466.456 79.9781 466.456H81.2378C81.4753 466.456 81.7889 466.3 81.869 466.142L103.449 427.923V428.001L103.369 479.775C103.369 480.09 103.605 480.247 103.843 480.247H105.497C105.811 480.247 106.047 480.09 106.047 479.775V424.376C106.047 424.061 105.811 423.903 105.496 423.903Z" fill="white"/>
<path d="M105.496 423.903H103.292C103.054 423.903 102.818 423.983 102.74 424.218L80.6093 463.226L58.5554 424.218C58.4866 424.116 58.3928 424.034 58.283 423.979C58.1731 423.924 58.051 423.898 57.9283 423.903H55.7198C55.4062 423.903 55.1687 424.061 55.1687 424.376V479.775C55.1687 480.09 55.4062 480.247 55.7198 480.247H57.3745C57.6107 480.247 57.8469 480.09 57.8469 479.775L57.7681 428.001V427.923L79.3482 466.142C79.5057 466.3 79.7419 466.456 79.9781 466.456H81.2378C81.4753 466.456 81.7889 466.3 81.869 466.142L103.449 427.923V428.001L103.369 479.775C103.369 480.09 103.605 480.247 103.843 480.247H105.497C105.811 480.247 106.047 480.09 106.047 479.775V424.376C106.047 424.061 105.811 423.903 105.496 423.903Z" stroke="white" stroke-width="2.66667" stroke-miterlimit="10"/>
<path d="M163.542 423.903H161.887C161.572 423.903 161.415 424.06 161.415 424.375V461.177C161.415 471.579 155.507 478.435 144.718 478.435C133.928 478.435 128.1 471.579 128.1 461.177V424.375C128.1 424.06 127.942 423.903 127.627 423.903H125.974C125.658 423.903 125.423 424.06 125.423 424.375V461.257C125.423 472.918 132.51 480.879 144.718 480.879C157.004 480.879 164.094 472.918 164.094 461.257V424.375C164.094 424.06 163.855 423.903 163.542 423.903Z" fill="white"/>
<path d="M163.542 423.903H161.887C161.572 423.903 161.415 424.06 161.415 424.375V461.177C161.415 471.579 155.507 478.435 144.718 478.435C133.928 478.435 128.1 471.579 128.1 461.177V424.375C128.1 424.06 127.942 423.903 127.627 423.903H125.974C125.658 423.903 125.423 424.06 125.423 424.375V461.257C125.423 472.918 132.51 480.879 144.718 480.879C157.004 480.879 164.094 472.918 164.094 461.257V424.375C164.094 424.06 163.855 423.903 163.542 423.903Z" stroke="white" stroke-width="2.66667" stroke-miterlimit="10"/>
<path d="M186.145 453.848V426.346H201.267C211.427 426.346 217.413 431.31 217.413 440.136C217.413 449.041 211.427 453.848 201.267 453.848H186.145ZM202.685 456.213C213.554 455.661 220.011 449.752 220.011 440.137C220.011 429.892 212.845 423.903 201.267 423.903H184.019C183.705 423.903 183.467 424.06 183.467 424.377V479.774C183.467 480.089 183.705 480.247 184.019 480.247H185.673C185.909 480.247 186.145 480.089 186.145 479.774V456.291H199.613L217.807 479.932C217.886 480.17 218.199 480.247 218.437 480.247H220.562C220.957 480.247 221.035 479.932 220.877 479.617L202.685 456.213Z" fill="white"/>
<path d="M186.145 453.848V426.346H201.267C211.427 426.346 217.413 431.31 217.413 440.136C217.413 449.041 211.427 453.848 201.267 453.848H186.145ZM202.685 456.213C213.554 455.661 220.011 449.752 220.011 440.137C220.011 429.892 212.845 423.903 201.267 423.903H184.019C183.705 423.903 183.467 424.06 183.467 424.377V479.774C183.467 480.089 183.705 480.247 184.019 480.247H185.673C185.909 480.247 186.145 480.089 186.145 479.774V456.291H199.613L217.807 479.932C217.886 480.17 218.199 480.247 218.437 480.247H220.562C220.957 480.247 221.035 479.932 220.877 479.617L202.685 456.213Z" stroke="white" stroke-width="2.66667" stroke-miterlimit="10"/>
<path d="M254.43 455.819H239.308V426.348H254.43C265.535 426.348 271.286 431.704 271.286 441.161C271.286 450.618 265.535 455.819 254.43 455.819ZM254.667 423.904H237.182C236.868 423.904 236.71 424.062 236.71 424.377V479.773C236.71 480.091 236.868 480.248 237.181 480.248H238.836C239.152 480.248 239.31 480.091 239.31 479.774V458.34H254.667C266.953 458.34 273.883 452.035 273.883 441.16C273.883 430.444 267.031 423.903 254.667 423.903" fill="white"/>
<path d="M254.43 455.819H239.308V426.348H254.43C265.535 426.348 271.286 431.704 271.286 441.161C271.286 450.618 265.535 455.819 254.43 455.819ZM254.667 423.904H237.182C236.868 423.904 236.71 424.062 236.71 424.377V479.773C236.71 480.091 236.868 480.248 237.181 480.248H238.836C239.152 480.248 239.31 480.091 239.31 479.774V458.34H254.667C266.953 458.34 273.883 452.035 273.883 441.16C273.883 430.444 267.031 423.903 254.667 423.903V423.904Z" stroke="white" stroke-width="2.66667" stroke-miterlimit="10"/>
<path d="M326.573 423.903H324.998C324.683 423.903 324.446 424.06 324.446 424.375V450.302H292.076V424.375C292.076 424.06 291.841 423.903 291.605 423.903H289.952C289.636 423.903 289.399 424.06 289.399 424.375V479.774C289.399 480.089 289.636 480.247 289.952 480.247H291.605C291.841 480.247 292.076 480.089 292.076 479.774V452.745H324.446V479.774C324.446 480.089 324.683 480.247 324.998 480.247H326.573C326.888 480.247 327.125 480.089 327.125 479.774V424.375C327.125 424.06 326.888 423.903 326.573 423.903Z" fill="white"/>
<path d="M326.573 423.903H324.998C324.683 423.903 324.446 424.06 324.446 424.375V450.302H292.076V424.375C292.076 424.06 291.841 423.903 291.605 423.903H289.952C289.636 423.903 289.399 424.06 289.399 424.375V479.774C289.399 480.089 289.636 480.247 289.952 480.247H291.605C291.841 480.247 292.076 480.089 292.076 479.774V452.745H324.446V479.774C324.446 480.089 324.683 480.247 324.998 480.247H326.573C326.888 480.247 327.125 480.089 327.125 479.774V424.375C327.125 424.06 326.888 423.903 326.573 423.903Z" stroke="white" stroke-width="2.66667" stroke-miterlimit="10"/>
<path d="M380.365 423.903H378.554C378.319 423.903 378.003 423.983 377.924 424.218L360.439 455.346L342.955 424.218C342.877 423.983 342.64 423.903 342.405 423.903H340.515C340.119 423.903 339.964 424.139 340.119 424.534L359.101 457.946V479.776C359.101 480.089 359.259 480.247 359.572 480.247H361.227C361.542 480.247 361.778 480.089 361.778 479.774V457.946L380.76 424.534C380.917 424.139 380.76 423.903 380.365 423.903Z" fill="white"/>
<path d="M380.365 423.903H378.554C378.319 423.903 378.003 423.983 377.924 424.218L360.439 455.346L342.955 424.218C342.877 423.983 342.64 423.903 342.405 423.903H340.515C340.119 423.903 339.964 424.139 340.119 424.534L359.101 457.946V479.776C359.101 480.089 359.259 480.247 359.572 480.247H361.227C361.542 480.247 361.778 480.089 361.778 479.774V457.946L380.76 424.534C380.917 424.139 380.76 423.903 380.365 423.903Z" stroke="white" stroke-width="2.66667" stroke-miterlimit="10"/>
<path d="M416.909 426.346H433.371C443.766 426.346 450.068 432.651 450.068 443.525V460.863C450.068 471.737 443.766 477.726 433.371 477.726H416.909V426.346ZM414.784 480.247H433.449C445.183 480.247 452.745 473.157 452.745 460.862V443.525C452.745 431.312 445.263 423.904 433.449 423.904H414.784C414.469 423.904 414.231 424.062 414.231 424.376V479.776C414.231 480.091 414.469 480.247 414.784 480.247Z" fill="white"/>
<path d="M416.909 426.346H433.371C443.766 426.346 450.068 432.651 450.068 443.525V460.863C450.068 471.737 443.766 477.726 433.371 477.726H416.909V426.346ZM414.784 480.247H433.449C445.183 480.247 452.745 473.157 452.745 460.862V443.525C452.745 431.312 445.263 423.904 433.449 423.904H414.784C414.469 423.904 414.231 424.062 414.231 424.376V479.776C414.231 480.091 414.469 480.247 414.784 480.247Z" stroke="white" stroke-width="2.66667" stroke-miterlimit="10"/>
<path d="M503.072 477.805H473.3V452.744H500.237C500.552 452.744 500.788 452.588 500.788 452.274V450.776C500.788 450.462 500.552 450.303 500.237 450.303H473.3V426.348H501.89C502.206 426.348 502.364 426.19 502.364 425.874V424.377C502.364 424.062 502.206 423.904 501.89 423.904H471.174C470.859 423.904 470.623 424.062 470.623 424.377V479.776C470.623 480.091 470.859 480.248 471.174 480.248H503.072C503.386 480.248 503.545 480.091 503.545 479.776V478.278C503.545 477.963 503.384 477.805 503.072 477.805Z" fill="white"/>
<path d="M503.072 477.805H473.3V452.744H500.237C500.552 452.744 500.788 452.588 500.788 452.274V450.776C500.788 450.462 500.552 450.303 500.237 450.303H473.3V426.348H501.89C502.206 426.348 502.364 426.19 502.364 425.874V424.377C502.364 424.062 502.206 423.904 501.89 423.904H471.174C470.859 423.904 470.623 424.062 470.623 424.377V479.776C470.623 480.091 470.859 480.248 471.174 480.248H503.072C503.386 480.248 503.545 480.091 503.545 479.776V478.278C503.545 477.963 503.384 477.805 503.072 477.805Z" stroke="white" stroke-width="2.66667" stroke-miterlimit="10"/>
<path d="M558.753 423.903H557.179C556.864 423.903 556.628 424.06 556.628 424.375L556.708 476.149L522.603 424.218C522.525 423.983 522.209 423.903 522.052 423.903H520.083C519.768 423.903 519.531 424.06 519.531 424.375V479.774C519.531 480.089 519.768 480.247 520.083 480.247H521.738C521.974 480.247 522.209 480.089 522.209 479.774L522.132 428.159L556.233 479.932C556.313 480.17 556.628 480.247 556.864 480.247H558.753C559.068 480.247 559.304 480.089 559.304 479.774V424.375C559.304 424.06 559.068 423.903 558.753 423.903Z" fill="white"/>
<path d="M558.753 423.903H557.179C556.864 423.903 556.628 424.06 556.628 424.375L556.708 476.149L522.603 424.218C522.525 423.983 522.209 423.903 522.052 423.903H520.083C519.768 423.903 519.531 424.06 519.531 424.375V479.774C519.531 480.089 519.768 480.247 520.083 480.247H521.738C521.974 480.247 522.209 480.089 522.209 479.774L522.132 428.159L556.233 479.932C556.313 480.17 556.628 480.247 556.864 480.247H558.753C559.068 480.247 559.304 480.089 559.304 479.774V424.375C559.304 424.06 559.068 423.903 558.753 423.903Z" stroke="white" stroke-width="2.66667" stroke-miterlimit="10"/>
<path d="M612.074 423.903H572.931C572.616 423.903 572.459 424.06 572.459 424.375V425.874C572.459 426.189 572.616 426.346 572.931 426.346H591.046V479.774C591.046 480.089 591.282 480.247 591.597 480.247H593.252C593.487 480.247 593.723 480.089 593.723 479.774V426.346H612.074C612.389 426.346 612.625 426.189 612.625 425.874V424.375C612.625 424.06 612.389 423.903 612.074 423.903Z" fill="white"/>
<path d="M612.074 423.903H572.931C572.616 423.903 572.459 424.06 572.459 424.375V425.874C572.459 426.189 572.616 426.346 572.931 426.346H591.046V479.774C591.046 480.089 591.282 480.247 591.597 480.247H593.252C593.487 480.247 593.723 480.089 593.723 479.774V426.346H612.074C612.389 426.346 612.625 426.189 612.625 425.874V424.375C612.625 424.06 612.389 423.903 612.074 423.903Z" stroke="white" stroke-width="2.66667" stroke-miterlimit="10"/>
<path d="M623.809 460.153L636.016 427.134H636.252L648.462 460.153H623.809ZM637.749 424.298C637.708 424.184 637.634 424.085 637.535 424.015C637.437 423.944 637.319 423.906 637.198 423.904H634.994C634.836 423.904 634.599 424.062 634.52 424.298L613.807 479.697C613.727 480.012 613.885 480.248 614.201 480.248H616.012C616.248 480.248 616.405 480.091 616.485 479.855L622.944 462.596H649.327L655.706 479.855C655.862 480.091 656.021 480.248 656.257 480.248H658.07C658.383 480.248 658.541 480.012 658.463 479.697L637.749 424.298Z" fill="white"/>
<path d="M623.809 460.153L636.016 427.134H636.252L648.462 460.153H623.809ZM637.749 424.298C637.708 424.184 637.634 424.085 637.535 424.015C637.437 423.944 637.319 423.906 637.198 423.904H634.994C634.836 423.904 634.599 424.062 634.52 424.298L613.807 479.697C613.727 480.012 613.885 480.248 614.201 480.248H616.012C616.248 480.248 616.405 480.091 616.485 479.855L622.944 462.596H649.327L655.706 479.855C655.862 480.091 656.021 480.248 656.257 480.248H658.07C658.383 480.248 658.541 480.012 658.463 479.697L637.749 424.298Z" stroke="white" stroke-width="2.66667" stroke-miterlimit="10"/>
<path d="M701.309 477.805H674.215V424.377C674.215 424.062 674.057 423.904 673.744 423.904H672.089C671.774 423.904 671.536 424.062 671.536 424.377V479.776C671.536 480.091 671.774 480.248 672.089 480.248H701.309C701.623 480.248 701.781 480.091 701.781 479.776V478.278C701.781 477.963 701.623 477.805 701.309 477.805Z" fill="white"/>
<path d="M701.309 477.805H674.215V424.377C674.215 424.062 674.057 423.904 673.744 423.904H672.089C671.774 423.904 671.536 424.062 671.536 424.377V479.776C671.536 480.091 671.774 480.248 672.089 480.248H701.309C701.623 480.248 701.781 480.091 701.781 479.776V478.278C701.781 477.963 701.623 477.805 701.309 477.805Z" stroke="white" stroke-width="2.66667" stroke-miterlimit="10"/>
<path d="M295.196 530.229C295.099 530.082 294.949 530.033 294.802 530.18C291.986 532.637 288.371 533.983 284.634 533.965C277.853 533.965 274.414 529.688 274.414 523.838V511.008C274.414 505.157 277.803 500.881 284.534 500.881C287.974 500.881 291.314 502.06 294.016 504.223C294.214 504.371 294.361 504.321 294.458 504.173L295 503.387C295.147 503.288 295.147 503.093 294.949 502.994C291.904 500.538 288.269 499.356 284.583 499.356C277.115 499.356 272.791 504.124 272.791 511.008V523.839C272.791 530.72 277.065 535.488 284.681 535.488C288.612 535.488 292.543 534.26 295.687 531.457C295.885 531.311 295.885 531.164 295.785 531.017L295.196 530.229Z" fill="white"/>
<path d="M295.196 530.229C295.099 530.082 294.949 530.033 294.802 530.18C291.986 532.637 288.371 533.983 284.634 533.965C277.853 533.965 274.414 529.688 274.414 523.838V511.008C274.414 505.157 277.803 500.881 284.534 500.881C287.974 500.881 291.314 502.06 294.016 504.223C294.214 504.371 294.361 504.321 294.458 504.173L295 503.387C295.147 503.288 295.147 503.093 294.949 502.994C291.904 500.538 288.269 499.356 284.583 499.356C277.115 499.356 272.791 504.124 272.791 511.008V523.839C272.791 530.72 277.065 535.488 284.681 535.488C288.612 535.488 292.543 534.26 295.687 531.457C295.885 531.311 295.885 531.164 295.785 531.017L295.197 530.229H295.196Z" stroke="white" stroke-width="2.66667" stroke-miterlimit="10"/>
<path d="M325.263 533.474H306.689V517.841H323.494C323.688 517.841 323.838 517.743 323.838 517.545V516.61C323.838 516.416 323.688 516.317 323.494 516.317H306.689V501.372H324.524C324.721 501.372 324.82 501.275 324.82 501.077V500.142C324.82 499.948 324.721 499.847 324.524 499.847H305.362C305.165 499.847 305.019 499.948 305.019 500.141V534.703C305.019 534.9 305.165 534.997 305.363 534.997H325.262C325.458 534.997 325.555 534.9 325.555 534.703V533.769C325.555 533.572 325.458 533.474 325.262 533.474" fill="white"/>
<path d="M325.263 533.474H306.689V517.841H323.494C323.688 517.841 323.838 517.743 323.838 517.545V516.61C323.838 516.416 323.688 516.317 323.494 516.317H306.689V501.372H324.524C324.721 501.372 324.82 501.275 324.82 501.077V500.142C324.82 499.948 324.721 499.847 324.524 499.847H305.362C305.165 499.847 305.019 499.948 305.019 500.141V534.703C305.019 534.9 305.165 534.997 305.363 534.997H325.262C325.458 534.997 325.555 534.9 325.555 534.703V533.769C325.555 533.572 325.458 533.474 325.262 533.474H325.263Z" stroke="white" stroke-width="2.66667" stroke-miterlimit="10"/>
<path d="M359.994 499.847H359.012C358.814 499.847 358.667 499.946 358.667 500.142L358.717 532.44L337.444 500.044C337.393 499.897 337.197 499.847 337.099 499.847H335.87C335.673 499.847 335.526 499.946 335.526 500.142V534.702C335.526 534.9 335.673 534.997 335.87 534.997H336.902C337.049 534.997 337.195 534.9 337.195 534.703L337.147 502.502L358.422 534.801C358.471 534.948 358.667 534.997 358.814 534.997H359.994C360.19 534.997 360.338 534.9 360.338 534.703V500.142C360.338 499.946 360.19 499.849 359.994 499.849" fill="white"/>
<path d="M359.994 499.847H359.012C358.814 499.847 358.667 499.946 358.667 500.142L358.717 532.44L337.444 500.044C337.393 499.897 337.197 499.847 337.099 499.847H335.87C335.673 499.847 335.526 499.946 335.526 500.142V534.702C335.526 534.9 335.673 534.997 335.87 534.997H336.902C337.049 534.997 337.195 534.9 337.195 534.703L337.147 502.502L358.422 534.801C358.471 534.948 358.667 534.997 358.814 534.997H359.994C360.19 534.997 360.338 534.9 360.338 534.703V500.142C360.338 499.946 360.19 499.849 359.994 499.849V499.847Z" stroke="white" stroke-width="2.66667" stroke-miterlimit="10"/>
<path d="M393.253 499.847H368.833C368.638 499.847 368.538 499.946 368.538 500.142V501.077C368.538 501.273 368.638 501.372 368.834 501.372H380.134V534.702C380.134 534.9 380.281 534.997 380.478 534.997H381.51C381.657 534.997 381.803 534.9 381.803 534.703V501.372H393.253C393.449 501.372 393.597 501.273 393.597 501.078V500.144C393.597 499.946 393.449 499.847 393.253 499.847Z" fill="white"/>
<path d="M393.253 499.847H368.833C368.638 499.847 368.538 499.946 368.538 500.142V501.077C368.538 501.273 368.638 501.372 368.834 501.372H380.134V534.702C380.134 534.9 380.281 534.997 380.478 534.997H381.51C381.657 534.997 381.803 534.9 381.803 534.703V501.372H393.253C393.449 501.372 393.597 501.273 393.597 501.078V500.144C393.597 499.946 393.449 499.847 393.253 499.847Z" stroke="white" stroke-width="2.66667" stroke-miterlimit="10"/>
<path d="M422.04 533.474H403.468V517.841H420.272C420.467 517.841 420.615 517.743 420.615 517.545V516.61C420.615 516.416 420.467 516.317 420.272 516.317H403.468V501.372H421.302C421.499 501.372 421.598 501.275 421.598 501.077V500.142C421.598 499.948 421.499 499.847 421.302 499.847H402.141C401.944 499.847 401.797 499.948 401.797 500.141V534.703C401.797 534.9 401.944 534.997 402.141 534.997H422.04C422.236 534.997 422.335 534.9 422.335 534.703V533.769C422.335 533.572 422.236 533.474 422.04 533.474Z" fill="white"/>
<path d="M422.04 533.474H403.468V517.841H420.272C420.467 517.841 420.615 517.743 420.615 517.545V516.61C420.615 516.416 420.467 516.317 420.272 516.317H403.468V501.372H421.302C421.499 501.372 421.598 501.275 421.598 501.077V500.142C421.598 499.948 421.499 499.847 421.302 499.847H402.141C401.944 499.847 401.797 499.948 401.797 500.141V534.703C401.797 534.9 401.944 534.997 402.141 534.997H422.04C422.236 534.997 422.335 534.9 422.335 534.703V533.769C422.335 533.572 422.236 533.474 422.04 533.474Z" stroke="white" stroke-width="2.66667" stroke-miterlimit="10"/>
<path d="M433.975 518.529V501.372H443.409C449.748 501.372 453.48 504.47 453.48 509.975C453.48 515.53 449.746 518.528 443.408 518.528L433.975 518.529ZM444.293 520.003C451.073 519.66 455.101 515.972 455.101 509.976C455.101 503.585 450.631 499.847 443.408 499.847H432.649C432.451 499.847 432.304 499.948 432.304 500.141V534.702C432.304 534.9 432.451 534.997 432.649 534.997H433.68C433.828 534.997 433.975 534.9 433.975 534.703V520.051H442.376L453.727 534.799C453.775 534.946 453.971 534.996 454.119 534.996H455.446C455.691 534.996 455.742 534.799 455.642 534.602L444.293 520.003Z" fill="white"/>
<path d="M433.975 518.529V501.372H443.409C449.748 501.372 453.48 504.47 453.48 509.975C453.48 515.53 449.746 518.528 443.408 518.528H433.975V518.529ZM444.293 520.003C451.073 519.66 455.101 515.972 455.101 509.976C455.101 503.585 450.631 499.847 443.408 499.847H432.649C432.451 499.847 432.304 499.948 432.304 500.141V534.702C432.304 534.9 432.451 534.997 432.649 534.997H433.68C433.828 534.997 433.975 534.9 433.975 534.703V520.051H442.376L453.727 534.799C453.775 534.946 453.971 534.996 454.119 534.996H455.446C455.691 534.996 455.742 534.799 455.642 534.602L444.293 520.002V520.003Z" stroke="white" stroke-width="2.66667" stroke-miterlimit="10"/>
<path d="M214.948 227.799L214.954 227.812C216.555 232.42 218.325 236.967 220.262 241.444C223.934 249.806 227.932 257.889 231.801 265.707L232.377 266.872C241.283 285.061 248.369 300.393 251.797 318.251L252.461 321.709L253.109 318.248C254.719 309.643 254.67 299.903 252.959 289.304C251.315 278.917 248.225 268.93 245.716 261.386C243.732 255.457 241.547 249.6 239.434 243.937C238.326 240.969 237.225 238.021 236.164 235.091C233.231 226.936 230.254 218.284 228.888 210.007C227.345 201.493 227.927 193.98 230.622 187.666L231.111 186.435L231.774 185.201C231.921 184.942 232.054 184.681 232.192 184.418C232.491 183.842 232.775 183.296 233.187 182.727C234.225 181.08 235.355 179.493 236.571 177.973C239.121 174.911 241.985 172.421 245.082 170.572C248.247 168.657 251.894 167.251 255.914 166.393C259.63 165.624 263.849 165.343 268.45 165.55C276.644 165.971 285.59 167.883 295.035 171.235L298.186 172.353L295.704 170.11C292.422 167.143 288.517 164.437 283.769 161.844C279.413 159.445 274.795 157.555 270.008 156.209C264.526 154.73 259.484 154.086 254.625 154.232C249.115 154.386 243.59 155.586 238.652 157.706C233.61 159.864 228.85 163.107 224.88 167.091C222.541 169.482 220.893 171.396 219.563 173.253C218.897 174.066 218.311 174.999 217.745 175.902L216.081 178.572L215.135 180.449C212.7 185.235 211.084 190.884 210.457 196.783C209.954 201.703 210.178 206.852 211.164 212.997C211.983 217.677 213.223 222.517 214.948 227.799Z" fill="white"/>
<path d="M668.914 374.046C662.701 370.07 656.322 365.471 649.962 360.374C637.973 350.77 626.595 340.04 615.59 329.664C605.479 320.131 595.027 310.273 584.11 301.296C570.265 289.909 549.067 274.623 524.915 273.331C500.92 272.046 475.645 284.689 455.552 308.012C442.179 323.538 432.187 341.87 422.523 359.599C419.617 364.93 416.612 370.443 413.564 375.79C413.143 376.523 412.705 377.245 412.251 377.957C409.34 366.01 407.699 354.285 407.271 342.167C406.96 334.265 406.989 328.354 407.36 323C407.76 316.992 408.632 310.653 409.945 304.158C412.163 292.999 415.601 282.113 419.242 270.588L420.943 265.163C424.821 252.471 428.829 239.348 429.761 224.924C430.253 217.144 429.55 209.578 427.671 202.44C425.916 195.717 422.717 188.84 418.154 181.994C413.159 174.638 407.803 169.32 401.774 165.737C398.147 163.605 394.161 162.102 390.25 161.393C386.455 160.68 382.425 160.608 378.263 161.176C370.493 162.229 363.663 165.006 357.437 167.851C352.56 170.119 347.855 172.588 343.306 174.978C341.945 175.694 340.586 176.407 339.229 177.113C332.714 180.54 327.198 183.233 321.447 185.231C316.185 187.044 309.991 188.323 302.518 189.14C296.005 189.792 289.437 189.643 282.961 188.697C275.891 187.661 269.526 185.758 264.046 183.036L263.378 184.192C273.931 191.226 287.557 194.994 302.777 195.094C305.813 195.155 309.125 194.976 313.252 194.536L318.43 193.819C320.188 193.516 321.934 193.146 323.664 192.71C330.763 190.903 337.518 188.158 343.299 185.726C345.293 184.872 347.269 184.004 349.233 183.143C353.515 181.259 357.557 179.482 361.691 177.901C369.073 175.082 374.568 173.688 379.511 173.383C385.346 173.001 390.472 174.258 394.757 177.118C398.827 179.802 402.643 184.061 406.106 189.782C412.399 199.979 415.006 211.412 413.859 223.771C412.71 236.329 408.257 249.387 404.328 260.908C400.496 272.225 395.727 286.311 392.692 300.583C391.154 307.831 390.11 314.941 389.591 321.715C389.084 328.492 389 335.433 389.331 342.938C389.665 350.116 390.368 357.195 391.413 363.975C392.38 370.328 393.8 377.069 395.759 384.582L396.976 389.368L396.988 389.416C396.363 389.398 395.742 389.319 395.133 389.181C390.385 388.046 387.233 383.52 384.414 378.977L360.193 339.974C354.413 330.667 348.436 321.042 339.886 313.738C330.355 305.6 318.726 302.059 308.771 304.272C300.827 306.04 294.214 311.148 287.819 316.085L287.335 316.459C270.544 329.424 250.555 342.308 229.536 339.526C211.886 337.194 198.854 325.143 185.056 312.384C176.288 304.276 167.222 295.892 156.855 290.237C144.07 283.263 128.681 280.346 112.343 281.798C97.3828 283.131 82.0784 287.999 68.0897 295.871C40.9078 311.169 20.1123 334.835 0 357.721L0.994141 358.612C20.3698 337.356 40.406 315.374 66.0187 301.083C94.4471 285.228 125.524 282.749 149.155 294.452C161.133 300.384 171.399 309.937 181.325 319.176C194.931 331.84 209.001 344.934 227.372 348.296C253.656 353.1 279.365 335.891 298.137 323.322C304.211 319.254 310.69 315.356 317.422 316.275C324.517 317.246 329.848 323.261 334.552 329.617C345.743 344.749 355.749 360.724 364.48 377.399C372.281 392.308 382.158 407.336 396.607 407.334C397.321 407.334 398.049 407.296 398.785 407.221C411.038 405.966 418.855 394.206 424.298 384.1C427.338 378.453 430.289 372.625 433.145 366.987C441.213 351.059 449.556 334.591 460.783 320.439C477.984 298.76 500.036 286.402 521.439 286.402C521.773 286.402 522.105 286.405 522.439 286.411C545.596 286.829 565.988 301.205 582.882 315.215C590.168 321.258 597.403 327.629 604.4 333.794C618.515 346.227 633.111 359.082 648.895 369.895C668.654 383.431 698.25 399.138 726.981 397.106L727 395.776C708.001 393.858 688.457 386.546 668.913 374.046" fill="white"/>
</svg>
