<svg width="35" height="36" viewBox="0 0 35 36" fill="none" xmlns="http://www.w3.org/2000/svg">
<path fill-rule="evenodd" clip-rule="evenodd" d="M7.54283 17.9995C7.54283 16.8628 7.7315 15.7729 8.06865 14.7508L2.17064 10.2471C1.02112 12.5808 0.373627 15.2107 0.373627 17.9995C0.373627 20.7861 1.02058 23.4141 2.16818 25.7465L8.06291 21.234C7.72904 20.2165 7.54283 19.1307 7.54283 17.9995Z" fill="#FAB02B"/>
<path fill-rule="evenodd" clip-rule="evenodd" d="M17.8981 7.65909C20.3675 7.65909 22.598 8.53408 24.3504 9.96579L29.4483 4.87497C26.3418 2.17042 22.359 0.5 17.8981 0.5C10.9726 0.5 5.02043 4.46044 2.17041 10.2474L8.06814 14.7512C9.42711 10.6261 13.3009 7.65909 17.8981 7.65909Z" fill="#FAB02B"/>
<path fill-rule="evenodd" clip-rule="evenodd" d="M17.8981 28.3411C13.3011 28.3411 9.42739 25.3741 8.06841 21.249L2.17041 25.752C5.02043 31.5398 10.9726 35.5002 17.8981 35.5002C22.1725 35.5002 26.2535 33.9824 29.3163 31.1386L23.7179 26.8107C22.1383 27.8057 20.1491 28.3411 17.8981 28.3411Z" fill="#FAB02B"/>
<path fill-rule="evenodd" clip-rule="evenodd" d="M34.6262 18.0001C34.6262 16.9659 34.4667 15.8522 34.2278 14.8184H17.8982V21.5796H27.2978C26.8278 23.8849 25.5486 25.6571 23.718 26.8104L29.3163 31.1384C32.5336 28.1524 34.6262 23.7042 34.6262 18.0001Z" fill="#FAB02B"/>
</svg>
