<svg width="20" height="20" viewBox="0 0 20 20" fill="none" xmlns="http://www.w3.org/2000/svg">
<path d="M18.3333 14.1V16.6C18.3343 16.8321 18.2867 17.0618 18.1938 17.2744C18.1008 17.4871 17.9644 17.678 17.7934 17.8349C17.6224 17.9918 17.4205 18.1112 17.2006 18.1856C16.9808 18.2599 16.7478 18.2875 16.5167 18.2666C13.9524 17.988 11.4892 17.1118 9.325 15.7083C7.31152 14.4289 5.60445 12.7218 4.325 10.7083C2.91665 8.53432 2.0402 6.05914 1.76667 3.48331C1.74584 3.25287 1.77323 3.02061 1.84708 2.80133C1.92094 2.58205 2.03964 2.38055 2.19564 2.20966C2.35163 2.03877 2.5415 1.90224 2.75316 1.80875C2.96481 1.71526 3.19362 1.66686 3.425 1.66665H5.925C6.32942 1.66267 6.72149 1.80588 7.02813 2.06959C7.33478 2.3333 7.53506 2.69952 7.59167 3.09998C7.69719 3.90003 7.89288 4.68558 8.175 5.44165C8.28712 5.73992 8.31139 6.06407 8.24492 6.37571C8.17846 6.68735 8.02405 6.9734 7.8 7.19998L6.74167 8.25831C7.92796 10.3446 9.65538 12.072 11.7417 13.2583L12.8 12.2C13.0266 11.9759 13.3126 11.8215 13.6243 11.7551C13.9359 11.6886 14.2601 11.7129 14.5583 11.825C15.3144 12.1071 16.0999 12.3028 16.9 12.4083C17.3048 12.4654 17.6745 12.6693 17.9388 12.9812C18.2031 13.2931 18.3435 13.6913 18.3333 14.1Z" stroke="white" stroke-width="2" stroke-linecap="round" stroke-linejoin="round"/>
</svg>
