<svg width="42" height="32" viewBox="0 0 42 32" fill="none" xmlns="http://www.w3.org/2000/svg">
<path d="M9.54166 12.8333C9.07708 12.8333 8.63125 12.9041 8.1875 12.9687C8.33125 12.4853 8.47916 11.9937 8.71666 11.552C8.95416 10.9103 9.325 10.3541 9.69375 9.79367C10.0021 9.18742 10.5458 8.777 10.9458 8.25825C11.3646 7.75408 11.9354 7.41867 12.3875 6.99992C12.8312 6.56242 13.4125 6.34367 13.875 6.03533C14.3583 5.75825 14.7792 5.452 15.2292 5.30617L16.3521 4.84367L17.3396 4.43325L16.3292 0.395752L15.0854 0.695751C14.6875 0.795751 14.2021 0.912418 13.65 1.052C13.0854 1.15617 12.4833 1.44158 11.8125 1.702C11.15 1.99783 10.3833 2.19784 9.67083 2.67284C8.95416 3.127 8.12708 3.50617 7.39791 4.1145C6.69166 4.74158 5.83958 5.28534 5.21041 6.08325C4.52291 6.82908 3.84375 7.61242 3.31666 8.50408C2.70625 9.35408 2.29166 10.2874 1.85416 11.2103C1.45833 12.1333 1.13958 13.077 0.879164 13.9937C0.385414 15.8312 0.164581 17.577 0.079164 19.0708C0.0083307 20.5666 0.0499974 21.8103 0.137497 22.7103C0.168747 23.1353 0.227081 23.5478 0.268748 23.8333L0.320831 24.1833L0.374997 24.1708C0.745541 25.9016 1.59855 27.4923 2.83534 28.7586C4.07213 30.025 5.64217 30.9153 7.36383 31.3266C9.08549 31.738 10.8884 31.6535 12.5641 31.0829C14.2397 30.5124 15.7196 29.4791 16.8325 28.1026C17.9454 26.7261 18.6459 25.0627 18.8529 23.3047C19.06 21.5467 18.7651 19.7661 18.0024 18.1687C17.2396 16.5713 16.0403 15.2226 14.543 14.2784C13.0458 13.3342 11.3118 12.8331 9.54166 12.8333ZM32.4583 12.8333C31.9937 12.8333 31.5479 12.9041 31.1042 12.9687C31.2479 12.4853 31.3958 11.9937 31.6333 11.552C31.8708 10.9103 32.2417 10.3541 32.6104 9.79367C32.9187 9.18742 33.4625 8.777 33.8625 8.25825C34.2812 7.75408 34.8521 7.41867 35.3042 6.99992C35.7479 6.56242 36.3292 6.34367 36.7917 6.03533C37.275 5.75825 37.6958 5.452 38.1458 5.30617L39.2687 4.84367L40.2562 4.43325L39.2458 0.395752L38.0021 0.695751C37.6042 0.795751 37.1187 0.912418 36.5667 1.052C36.0021 1.15617 35.4 1.44158 34.7292 1.702C34.0687 1.99992 33.3 2.19783 32.5875 2.67492C31.8708 3.12908 31.0437 3.50825 30.3146 4.11658C29.6083 4.74367 28.7562 5.28742 28.1271 6.08325C27.4396 6.82908 26.7604 7.61242 26.2333 8.50408C25.6229 9.35408 25.2083 10.2874 24.7708 11.2103C24.375 12.1333 24.0562 13.077 23.7958 13.9937C23.3021 15.8312 23.0812 17.577 22.9958 19.0708C22.925 20.5666 22.9667 21.8103 23.0542 22.7103C23.0854 23.1353 23.1437 23.5478 23.1854 23.8333L23.2375 24.1833L23.2917 24.1708C23.6622 25.9016 24.5152 27.4923 25.752 28.7586C26.9888 30.025 28.5588 30.9153 30.2805 31.3266C32.0022 31.738 33.8051 31.6535 35.4807 31.0829C37.1564 30.5124 38.6363 29.4791 39.7492 28.1026C40.8621 26.7261 41.5626 25.0627 41.7696 23.3047C41.9766 21.5467 41.6817 19.7661 40.919 18.1687C40.1563 16.5713 38.9569 15.2226 37.4597 14.2784C35.9624 13.3342 34.2284 12.8331 32.4583 12.8333Z" fill="#0C446C"/>
</svg>
