<svg width="35" height="36" viewBox="0 0 35 36" fill="none" xmlns="http://www.w3.org/2000/svg">
<g clip-path="url(#clip0_501_757)">
<path d="M26.5792 10.9431C27.8381 11.9841 31.2913 14.8394 30.7286 16.8438C30.4684 17.744 29.4345 18.0324 28.6679 18.3136C26.9025 18.9536 25.0881 19.46 23.2454 19.8327C21.7543 20.1352 18.5684 20.7962 19.1592 18.1588C19.3912 17.139 20.2141 16.2739 20.8753 15.5073C22.2326 13.9109 23.6182 12.2228 25.2568 10.9147C25.3905 10.8092 25.5522 10.7811 25.6929 10.8023C25.9673 10.6899 26.2978 10.7041 26.5792 10.9431Z" fill="#FAB02B"/>
<path d="M24.7224 31.9864C23.6182 31.0932 22.8375 29.6936 22.1623 28.4699C21.5012 27.2884 20.4604 25.7269 20.2845 24.3556C19.9259 21.5353 24.012 23.2304 25.1866 23.6383C26.7479 24.1868 30.9326 24.7917 30.4684 27.2321C30.0816 29.2224 27.6832 31.6488 25.679 31.9583C25.6579 31.9653 25.6297 31.9583 25.6016 31.9583C25.5946 31.9653 25.5875 31.9724 25.5806 31.9793C25.5243 32.0074 25.4611 32.0427 25.3977 32.0708C25.1585 32.1975 24.9265 32.1483 24.7224 31.9864Z" fill="#FAB02B"/>
<path d="M15.5865 24.7279C17.809 23.8066 18.0129 26.2892 17.9988 27.7943C17.9778 29.5878 17.9215 31.3881 17.7878 33.1745C17.7386 33.8989 17.7668 34.7711 17.0775 35.2282C16.2265 35.7909 14.5879 35.3477 13.7087 35.0735C13.6806 35.0594 13.6524 35.0455 13.6243 35.0384C11.7747 34.7149 9.51707 33.8639 9.29903 32.1549C9.27785 31.958 9.35534 31.7822 9.47488 31.6485C9.53119 31.543 9.58735 31.4446 9.65072 31.3532C9.92508 30.9734 10.2415 30.6358 10.558 30.2912C11.0925 29.4965 11.6693 28.7299 12.2811 27.9914C13.1672 26.9223 14.2572 25.2765 15.5865 24.7279Z" fill="#FAB02B"/>
<path d="M15.9101 17.0199C12.6679 14.3544 9.51002 10.226 7.8783 6.40711C6.63341 3.50242 9.79834 1.73015 12.2387 0.928407C15.5302 -0.15475 16.8383 0.7877 17.1688 4.07922C17.4432 6.91347 17.5698 9.7689 17.5486 12.6173C17.5416 13.82 17.8791 15.761 17.1759 16.8442C17.2884 17.2873 16.6203 17.6037 16.2405 17.3013C16.1842 17.2591 16.128 17.2028 16.0647 17.1535C16.0085 17.1184 15.9592 17.0762 15.9101 17.0199Z" fill="#FAB02B"/>
<path d="M15.5584 21.1485C15.8187 22.3019 15.0028 22.7661 14.0464 23.2022C12.3444 23.9688 10.558 24.5807 8.76458 25.0871C7.72362 25.3754 6.1272 26.0646 5.12153 25.298C4.36198 24.7214 4.31273 23.5187 4.24245 22.6465C4.08778 20.6984 4.38316 16.0495 7.08376 15.8527C8.40599 15.7612 10.0587 16.9427 11.1419 17.5617C12.5836 18.3917 14.131 19.3411 15.2069 20.6423C15.3685 20.7336 15.5021 20.8953 15.5584 21.1485Z" fill="#FAB02B"/>
</g>
<defs>
<clipPath id="clip0_501_757">
<rect width="35" height="35" fill="white" transform="translate(-0.000259399 0.5)"/>
</clipPath>
</defs>
</svg>
